<svg width="250" height="250" viewBox="0 0 250 250" fill="none" xmlns="http://www.w3.org/2000/svg">
<defs>
<linearGradient id="paint0_linear_3466_1243" x1="118.697" y1="37.7618" x2="75.497" y2="107.927" gradientUnits="userSpaceOnUse">
<stop stop-color="#FF9085"/>
<stop offset="1" stop-color="#FB6FBB"/>
</linearGradient>
<linearGradient id="paint1_linear_3466_1243" x1="89.1049" y1="75.3137" x2="60.9571" y2="160.022" gradientUnits="userSpaceOnUse">
<stop stop-color="#AA80F9"/>
<stop offset="1" stop-color="#6165D7"/>
</linearGradient>
<linearGradient id="paint2_linear_3466_1243" x1="52.0185" y1="105.061" x2="55.0754" y2="145.149" gradientUnits="userSpaceOnUse">
<stop stop-color="#E38DDD"/>
<stop offset="1" stop-color="#9571F6"/>
</linearGradient>
<linearGradient id="paint3_linear_3466_1243" x1="-8.35155" y1="142.158" x2="21.3528" y2="192.4" gradientUnits="userSpaceOnUse">
<stop stop-color="#FF9085"/>
<stop offset="1" stop-color="#FB6FBB"/>
</linearGradient>
<linearGradient id="paint4_linear_3466_1243" x1="-3.70008" y1="139.408" x2="26.0034" y2="189.65" gradientUnits="userSpaceOnUse">
<stop stop-color="#FF9085"/>
<stop offset="1" stop-color="#FB6FBB"/>
</linearGradient>
<linearGradient id="paint5_linear_3466_1243" x1="44.0195" y1="162.307" x2="128.174" y2="227.707" gradientUnits="userSpaceOnUse">
<stop stop-color="#FF9085"/>
<stop offset="1" stop-color="#FB6FBB"/>
</linearGradient>
<linearGradient id="paint6_linear_3466_1243" x1="60.663" y1="86.9058" x2="69.1584" y2="141.536" gradientUnits="userSpaceOnUse">
<stop stop-color="#E38DDD"/>
<stop offset="1" stop-color="#9571F6"/>
</linearGradient>
<linearGradient id="paint7_linear_3466_1243" x1="45.1146" y1="160.898" x2="129.269" y2="226.298" gradientUnits="userSpaceOnUse">
<stop stop-color="#FF9085"/>
<stop offset="1" stop-color="#FB6FBB"/>
</linearGradient>
<linearGradient id="paint8_linear_3466_1243" x1="41.589" y1="135.642" x2="42.9766" y2="136.163" gradientUnits="userSpaceOnUse">
<stop stop-color="#E38DDD"/>
<stop offset="1" stop-color="#9571F6"/>
</linearGradient>
<linearGradient id="paint9_linear_3466_1243" x1="86.5754" y1="135.324" x2="87.963" y2="135.844" gradientUnits="userSpaceOnUse">
<stop stop-color="#E38DDD"/>
<stop offset="1" stop-color="#9571F6"/>
</linearGradient>
<linearGradient id="paint10_linear_3466_1243" x1="69.3851" y1="128.409" x2="265.952" y2="120.829" gradientUnits="userSpaceOnUse">
<stop stop-color="#444B8C"/>
<stop offset="1" stop-color="#26264F"/>
</linearGradient>
<linearGradient id="paint11_linear_3466_1243" x1="171.407" y1="54.3806" x2="-15.1" y2="444.571" gradientUnits="userSpaceOnUse">
<stop stop-color="#FFC444"/>
<stop offset="1" stop-color="#F36F56"/>
</linearGradient>
<linearGradient id="paint12_linear_3466_1243" x1="172.087" y1="54.7056" x2="-14.4191" y2="444.896" gradientUnits="userSpaceOnUse">
<stop stop-color="#FFC444"/>
<stop offset="1" stop-color="#F36F56"/>
</linearGradient>
<linearGradient id="paint13_linear_3466_1243" x1="172.608" y1="179.759" x2="159.966" y2="148.729" gradientUnits="userSpaceOnUse">
<stop stop-color="#311944"/>
<stop offset="1" stop-color="#893976"/>
</linearGradient>
<linearGradient id="paint14_linear_3466_1243" x1="216.169" y1="165.092" x2="217.621" y2="168.103" gradientUnits="userSpaceOnUse">
<stop stop-color="#FFC444"/>
<stop offset="1" stop-color="#F36F56"/>
</linearGradient>
<linearGradient id="paint15_linear_3466_1243" x1="212.42" y1="241.54" x2="212.42" y2="232.122" gradientUnits="userSpaceOnUse">
<stop stop-color="#FFC444"/>
<stop offset="1" stop-color="#F36F56"/>
</linearGradient>
<linearGradient id="paint16_linear_3466_1243" x1="183.465" y1="244.223" x2="183.465" y2="232.873" gradientUnits="userSpaceOnUse">
<stop stop-color="#FFC444"/>
<stop offset="1" stop-color="#F36F56"/>
</linearGradient>
<linearGradient id="paint17_linear_3466_1243" x1="177.061" y1="199.638" x2="214.515" y2="199.638" gradientUnits="userSpaceOnUse">
<stop stop-color="#311944"/>
<stop offset="1" stop-color="#893976"/>
</linearGradient>
<linearGradient id="paint18_linear_3466_1243" x1="175.871" y1="171.958" x2="202.513" y2="217.093" gradientUnits="userSpaceOnUse">
<stop stop-color="#311944"/>
<stop offset="1" stop-color="#893976"/>
</linearGradient>
<linearGradient id="paint19_linear_3466_1243" x1="186.494" y1="165.687" x2="213.136" y2="210.823" gradientUnits="userSpaceOnUse">
<stop stop-color="#311944"/>
<stop offset="1" stop-color="#893976"/>
</linearGradient>
<linearGradient id="paint20_linear_3466_1243" x1="197.282" y1="135.734" x2="160.905" y2="81.9137" gradientUnits="userSpaceOnUse">
<stop stop-color="#E38DDD"/>
<stop offset="1" stop-color="#9571F6"/>
</linearGradient>
<linearGradient id="paint21_linear_3466_1243" x1="167.833" y1="129.251" x2="211.818" y2="178.274" gradientUnits="userSpaceOnUse">
<stop stop-color="#E38DDD"/>
<stop offset="1" stop-color="#9571F6"/>
</linearGradient>
<linearGradient id="paint22_linear_3466_1243" x1="177.863" y1="118.68" x2="185.569" y2="125.584" gradientUnits="userSpaceOnUse">
<stop stop-color="#E38DDD"/>
<stop offset="1" stop-color="#9571F6"/>
</linearGradient>
<linearGradient id="paint23_linear_3466_1243" x1="224.96" y1="222.864" x2="212.318" y2="191.833" gradientUnits="userSpaceOnUse">
<stop stop-color="#311944"/>
<stop offset="1" stop-color="#893976"/>
</linearGradient>
<linearGradient id="paint24_linear_3466_1243" x1="182.47" y1="130.416" x2="181.51" y2="119.769" gradientUnits="userSpaceOnUse">
<stop stop-color="#311944"/>
<stop offset="1" stop-color="#893976"/>
</linearGradient>
<linearGradient id="paint25_linear_3466_1243" x1="168.368" y1="76.6532" x2="239.343" y2="140.243" gradientUnits="userSpaceOnUse">
<stop stop-color="#444B8C"/>
<stop offset="1" stop-color="#26264F"/>
</linearGradient>
<linearGradient id="paint26_linear_3466_1243" x1="165.127" y1="131.463" x2="208.387" y2="179.68" gradientUnits="userSpaceOnUse">
<stop stop-color="#E38DDD"/>
<stop offset="1" stop-color="#9571F6"/>
</linearGradient>
<linearGradient id="paint27_linear_3466_1243" x1="164.388" y1="132.342" x2="208.372" y2="181.366" gradientUnits="userSpaceOnUse">
<stop stop-color="#E38DDD"/>
<stop offset="1" stop-color="#9571F6"/>
</linearGradient>
</defs>
<path d="M109.249 181.929C114.425 170.599 120.349 153.09 117.897 132.678C115.083 109.24 103.798 103.396 95.8944 77.8156C84.612 41.2993 104.477 17.8679 90.0082 5.52057C82.9522 -0.500888 70.962 -1.79732 62.9964 2.62681C40.2713 15.2501 38.9439 80.7513 69.6363 109.673C83.5169 122.753 96.8733 122.818 106.609 138.858C115.21 153.031 112.531 170.22 109.25 181.928L109.249 181.929Z" fill="url(#paint0_linear_3466_1243)"/>
<mask id="mask0_3466_1243" style="mask-type:luminance" maskUnits="userSpaceOnUse" x="46" y="0" width="73" height="182">
<path d="M109.249 181.929C114.425 170.599 120.349 153.09 117.897 132.678C115.083 109.24 103.798 103.396 95.8944 77.8156C84.612 41.2993 104.477 17.8679 90.0082 5.52057C82.9522 -0.500888 70.962 -1.79732 62.9964 2.62681C40.2713 15.2501 38.9439 80.7513 69.6363 109.673C83.5169 122.753 96.8733 122.818 106.609 138.858C115.21 153.031 112.531 170.22 109.25 181.928L109.249 181.929Z" fill="white"/>
</mask>
<g mask="url(#mask0_3466_1243)">
<g style="mix-blend-mode:soft-light">
<path d="M114.839 152.627C114.113 147.552 112.94 142.516 111.354 137.656C107.71 126.49 103.04 120.059 97.129 111.919C93.2691 106.605 88.895 100.581 84.0076 92.0932C74.8623 76.2119 72.0894 70.6797 70.0109 62.019C65.898 44.8805 68.4286 30.1849 70.3027 22.9509C72.9621 12.6884 77.5775 3.14638 84.022 -5.40991L84.3724 -5.15098C77.9621 3.35977 73.371 12.8509 70.7269 23.059C68.8627 30.2545 66.3456 44.8716 70.4369 61.9199C72.5028 70.528 75.2667 76.0405 84.3877 91.8798C89.2643 100.348 93.6312 106.361 97.4847 111.667C103.419 119.839 108.105 126.293 111.771 137.524C113.365 142.408 114.543 147.469 115.273 152.569L114.841 152.629L114.839 152.627Z" fill="white"/>
<path d="M68.4458 50.0966L68.1504 49.8939C68.0919 49.8538 62.2129 45.7734 57.4192 38.243C52.992 31.2894 48.6035 19.8866 52.8362 5.04907L53.2558 5.16693C49.0673 19.8509 53.408 31.1331 57.7875 38.0117C61.9256 44.5109 66.8662 48.4064 68.1063 49.3261C69.7931 37.3135 78.4467 30.3421 85.4477 26.5992C93.0918 22.5117 100.468 21.2929 100.542 21.2804L100.612 21.7072C100.54 21.7188 93.2251 22.9304 85.645 26.9849C78.6691 30.7171 70.0299 37.6948 68.4917 49.7421L68.4467 50.0957L68.4458 50.0966Z" fill="white"/>
<path d="M70.3244 89.3058C63.1774 89.3058 53.8772 87.5049 46.0836 80.0183L46.3871 79.7075C60.4081 93.1764 79.394 88.0022 81.4131 87.3995C77.9684 63.9003 94.6507 53.8003 94.82 53.7012L95.0424 54.0735C94.8749 54.1717 78.3557 64.1851 81.8715 87.5201L81.8985 87.6995L81.7247 87.7567C81.6266 87.7888 76.8814 89.3058 70.3235 89.3058H70.3244Z" fill="white"/>
<path d="M81.5833 113.538C76.088 113.538 69.1274 112.271 60.8899 108.241L61.0835 107.852C81.7499 117.966 94.2228 110.544 95.6043 109.644C91.694 96.8639 101.261 77.9343 101.358 77.7441L101.748 77.9397C101.651 78.1299 92.0858 97.055 96.069 109.668L96.1158 109.817L95.9898 109.909C95.9096 109.967 90.8106 113.538 81.5842 113.538H81.5833Z" fill="white"/>
</g>
</g>
<path d="M142.351 193.658C145.039 184.109 147.635 169.022 141.139 154.581C129.807 129.387 103.559 134.512 82.0408 106.51C64.685 83.9254 72.6055 68.678 52.3795 52.7324C48.9943 50.0636 31.1602 35.4618 16.0495 41.4716C7.53456 44.8582 3.66119 53.277 2.93443 54.8574C-8.05437 78.7432 13.1496 120.276 44.3842 141.593C62.33 153.839 68.8447 151.17 101.087 166.672C120.033 175.781 133.847 186.371 142.351 193.657V193.658Z" fill="url(#paint1_linear_3466_1243)"/>
<mask id="mask1_3466_1243" style="mask-type:luminance" maskUnits="userSpaceOnUse" x="0" y="40" width="146" height="154">
<path d="M142.351 193.658C145.039 184.109 147.635 169.022 141.139 154.581C129.807 129.387 103.559 134.512 82.0408 106.51C64.685 83.9254 72.6055 68.678 52.3795 52.7324C48.9943 50.0636 31.1602 35.4618 16.0495 41.4716C7.53456 44.8582 3.66119 53.277 2.93443 54.8574C-8.05437 78.7432 13.1496 120.276 44.3842 141.593C62.33 153.839 68.8447 151.17 101.087 166.672C120.033 175.781 133.847 186.371 142.351 193.657V193.658Z" fill="white"/>
</mask>
<g mask="url(#mask1_3466_1243)">
<g style="mix-blend-mode:soft-light">
<path d="M143.898 205.666C141.576 182.015 134.084 165.497 121.632 156.57C115.556 152.214 110.445 151.077 105.034 149.871C99.1292 148.556 93.0224 147.197 85.3838 141.414C77.9504 135.787 75.6071 130.899 72.6398 124.71C70.002 119.208 66.7185 112.359 58.7106 102.85C51.6906 94.5129 46.3628 90.3888 41.6618 86.7504C36.5204 82.7709 32.4589 79.6271 28.1235 72.5164C21.0603 60.9297 18.2586 46.7564 19.7959 30.3894L20.2309 30.4296C18.7026 46.7029 21.4836 60.7869 28.4972 72.2932C32.7903 79.3361 36.8239 82.4575 41.9302 86.4093C46.6483 90.0611 51.9959 94.1995 59.0456 102.572C67.0886 112.124 70.3847 119 73.0333 124.525C75.9746 130.66 78.2981 135.507 85.6476 141.07C93.2116 146.795 99.2697 148.144 105.129 149.449C110.585 150.664 115.738 151.811 121.888 156.219C134.445 165.221 141.997 181.844 144.332 205.623L143.898 205.665V205.666Z" fill="white"/>
<path d="M44.1213 88.4147L43.8295 88.3924C25.7028 86.9924 13.0173 78.7771 5.56864 72.1325C-2.5032 64.9324 -6.34145 57.9645 -6.37927 57.8958L-5.99473 57.6895C-5.9569 57.7592 -2.14658 64.6708 5.87393 71.8218C13.2316 78.3807 25.7325 86.4825 43.5756 87.937C42.9199 84.6352 37.1932 53.6672 50.1434 42.0698L50.4361 42.3913C37.0023 54.4226 43.988 87.795 44.0601 88.1308L44.1213 88.4138V88.4147Z" fill="white"/>
<path d="M46.1278 116.014C45.7964 116.014 45.4632 116.012 45.1264 116.008C33.491 115.867 16.1945 113.125 -0.131958 100.864L0.13191 100.518C16.3584 112.704 33.5504 115.433 45.1147 115.575C56.6681 115.712 65.0642 113.378 66.3763 112.99C63.5971 95.5942 70.3316 72.187 70.4001 71.9521L70.8197 72.0727C70.7513 72.3084 63.9961 95.7907 66.8374 113.108L66.8671 113.292L66.6888 113.349C66.6033 113.376 58.1991 116.016 46.1278 116.016V116.014Z" fill="white"/>
<path d="M60.1083 157.047C55.5397 157.047 50.637 156.762 45.4263 156.088L45.483 155.659C77.0319 159.741 97.2993 149.497 99.5147 148.311C88.426 131.18 96.2637 105.974 96.3447 105.72L96.7608 105.851C96.6806 106.103 88.8456 131.309 100.008 148.27L100.134 148.461L99.9353 148.575C99.7606 148.675 84.8723 157.047 60.1092 157.047H60.1083Z" fill="white"/>
</g>
</g>
<path d="M79.5958 135.156C78.9672 135.156 78.4296 134.682 78.3684 134.049C77.2877 122.806 73.5899 112.124 67.9577 103.969C62.9676 96.7452 57.0266 92.4344 52.0635 92.4344H52.0473C33.9683 92.4693 30.1868 133.621 30.1507 134.037C30.0922 134.711 29.4969 135.21 28.8152 135.152C28.1362 135.094 27.6327 134.501 27.6913 133.827C27.8462 132.039 31.7168 90.0255 52.0428 89.9862H52.0644C57.9289 89.9862 64.4635 94.5773 69.9948 102.585C75.8603 111.076 79.7066 122.167 80.8269 133.816C80.8918 134.489 80.3938 135.086 79.7156 135.151C79.676 135.154 79.6364 135.156 79.5967 135.156H79.5958Z" fill="url(#paint2_linear_3466_1243)"/>
<path d="M4.27809 219.851L28.0767 231.797L42.4966 187.926L18.7368 129.111L11.9996 130.749L1.7772 215.218C1.54575 217.13 2.54539 218.981 4.27809 219.851Z" fill="url(#paint3_linear_3466_1243)"/>
<path style="mix-blend-mode:multiply" opacity="0.52" d="M42.4967 187.926L18.7368 129.111L14.7626 130.077C14.2114 137.93 14.4537 144.393 14.8283 149.099C16.4214 169.123 21.7105 174.696 19.1484 188.665C17.0176 200.28 12.3644 201.857 12.7714 209.672C13.2145 218.184 19.2024 225.311 26.3205 230.916L28.0767 231.798L42.4967 187.927V187.926Z" fill="url(#paint4_linear_3466_1243)"/>
<path d="M18.7368 129.111H107.474L136.842 223.108L28.0767 231.797L18.7368 129.111Z" fill="url(#paint5_linear_3466_1243)"/>
<path d="M46.2268 137.168C45.6667 137.168 45.1596 136.787 45.0264 136.223C44.7742 135.157 38.9439 109.97 47.1643 97.6094C49.5202 94.0665 52.8127 91.904 56.9481 91.1808C78.199 87.4683 91.2825 132.72 91.8292 134.648C92.0138 135.299 91.631 135.974 90.9745 136.157C90.318 136.34 89.6372 135.96 89.4526 135.31C89.3247 134.859 76.4456 90.2522 57.3768 93.5906C53.8871 94.2004 51.2205 95.9558 49.2248 98.9558C41.5835 110.446 47.3697 135.412 47.4291 135.663C47.5849 136.321 47.1724 136.979 46.5096 137.134C46.415 137.156 46.3196 137.166 46.2268 137.166V137.168Z" fill="url(#paint6_linear_3466_1243)"/>
<g style="mix-blend-mode:multiply" opacity="0.3">
<path d="M107.474 129.111H63.4521C61.2808 131.301 59.7399 133.824 59.5931 136.655C58.9015 149.954 89.7389 154.323 92.7126 172.551C94.8578 185.699 81.6572 200.871 69.8786 207.63C57.4687 214.752 49.06 211.146 40.6676 219.052C36.9797 222.526 34.7346 226.87 33.399 231.373L136.843 223.109L107.475 129.112L107.474 129.111Z" fill="url(#paint7_linear_3466_1243)"/>
</g>
<path d="M49.641 137.907C49.9462 136.043 48.6693 134.286 46.789 133.983C44.9087 133.681 43.1369 134.947 42.8317 136.811C42.5265 138.675 43.8034 140.432 45.6837 140.734C47.564 141.037 49.3358 139.771 49.641 137.907Z" fill="url(#paint8_linear_3466_1243)"/>
<path d="M94.6283 137.589C94.9336 135.725 93.6567 133.969 91.7764 133.666C89.896 133.363 88.1243 134.629 87.8191 136.493C87.5138 138.358 88.7907 140.114 90.6711 140.417C92.5514 140.719 94.3231 139.454 94.6283 137.589Z" fill="url(#paint9_linear_3466_1243)"/>
<path d="M172.625 31.6055C180.333 96.1933 188.041 160.106 195.749 223.347C196.095 226.181 194.119 228.69 191.355 228.923C160.377 231.837 129.399 234.815 98.4214 237.856C92.8955 238.122 89.8605 235.06 89.5057 231.995C81.5717 163.728 73.6385 94.7451 65.7044 25.0484C65.3487 21.918 68.0234 19.2278 73.5493 19.4948C104.68 21.6957 135.811 23.8671 166.941 26.0091C169.723 26.1912 172.28 28.7082 172.626 31.6055H172.625Z" fill="#26264F"/>
<path d="M176.928 31.4733C184.685 96.3423 192.441 160.529 200.197 224.033C200.545 226.878 198.557 229.4 195.775 229.635C163.608 232.336 131.442 235.089 99.2751 237.898C96.3392 238.157 93.6411 235.852 93.2836 232.772C85.3 164.192 77.3164 94.8896 69.3319 24.8616C68.9735 21.7179 71.1016 19.3044 74.0572 19.5036C106.44 21.6455 138.823 23.7607 171.207 25.8518C174.007 26.0366 176.579 28.5634 176.928 31.4733Z" fill="url(#paint10_linear_3466_1243)"/>
<path d="M175.058 42.085C182.242 102.186 189.427 161.701 196.611 220.63C196.936 223.293 195.078 225.645 192.479 225.855C162.228 228.307 131.977 230.807 101.726 233.353C98.9923 233.585 96.4797 231.427 96.1456 228.566C88.7636 165.222 81.3816 101.26 73.9996 36.6796C73.6664 33.7582 75.6459 31.4966 78.3962 31.6582C108.836 33.4153 139.275 35.1546 169.714 36.8743C172.33 37.0225 174.732 39.3698 175.057 42.085H175.058Z" fill="url(#paint11_linear_3466_1243)"/>
<path style="mix-blend-mode:multiply" opacity="0.35" d="M169.716 36.8752C139.637 35.1752 109.558 33.4564 79.4796 31.7207C80.409 37.0207 82.0309 42.7895 84.7642 48.6699C94.7416 70.1307 109.398 71.312 115.133 90.0129C121.041 109.28 107.718 115.309 114.226 132.704C121.29 151.58 138.612 148.848 147.768 169.553C155.66 187.4 145.501 195.558 153.661 206.403C162.605 218.29 179.152 214.26 196.326 218.286C189.237 160.121 182.148 101.39 175.058 42.0841C174.734 39.369 172.331 37.0216 169.716 36.8743V36.8752Z" fill="url(#paint12_linear_3466_1243)"/>
<path d="M125.782 28.9528C125.904 29.9975 125.195 30.7975 124.199 30.7412C123.202 30.6814 122.295 29.7832 122.172 28.7332C122.05 27.6867 122.759 26.8814 123.756 26.9466C124.753 27.0082 125.659 27.9073 125.782 28.9537V28.9528Z" fill="#DE8BDF"/>
<path opacity="0.63" d="M159.9 110.69C153.87 96.9111 138.571 90.2191 125.729 95.7433C112.888 101.267 107.367 116.916 113.397 130.694C119.427 144.473 134.726 151.165 147.567 145.641C160.409 140.117 165.93 124.468 159.9 110.69ZM140.964 130.326L141.479 134.206L137.718 134.696L137.239 131.081C134.652 131.302 132.067 130.943 130.497 130.295L131.058 125.693C132.786 126.358 135.157 126.862 137.651 126.537C139.84 126.252 141.225 125.219 141.023 123.698C140.831 122.251 139.482 121.499 136.516 120.917C132.227 120.083 129.173 118.545 128.684 114.854C128.241 111.506 130.272 108.57 134.272 107.236L133.793 103.621L137.555 103.132L137.999 106.48C140.585 106.258 142.383 106.567 143.731 107.01L143.188 111.456C142.134 111.167 140.253 110.522 137.489 110.883C134.995 111.208 134.33 112.378 134.471 113.443C134.638 114.699 136.087 115.323 139.511 116.116C144.29 117.119 146.409 118.972 146.864 122.396C147.313 125.784 145.278 128.99 140.965 130.326L140.964 130.326Z" fill="#F4F7FA"/>
<g opacity="0.63">
<path d="M173.678 185.507L114.9 187.272C112.787 187.336 110.959 185.825 110.641 183.753L108.259 168.217C107.88 165.747 109.776 163.509 112.295 163.451L171.136 162.1C173.238 162.052 175.049 163.559 175.365 165.62L177.684 180.742C178.062 183.2 176.185 185.432 173.679 185.507H173.678Z" fill="#F4F7FA"/>
<path d="M175.653 198.279L116.91 200.271C114.791 200.343 112.953 198.83 112.635 196.752L112.613 196.605C112.236 194.149 114.108 191.919 116.613 191.84L175.378 189.995C177.494 189.929 179.324 191.439 179.643 193.514C180.019 195.966 178.154 198.194 175.654 198.279H175.653Z" fill="#F4F7FA"/>
</g>
<path d="M145.552 112.923C145.747 112.275 146.055 110.925 145.639 109.352C144.831 106.296 141.868 104.584 141.603 104.808C141.46 104.928 141.929 105.757 142.161 106.117C142.645 106.867 142.93 106.87 143.018 107.253C143.2 108.042 142.08 108.397 141.786 109.597C141.574 110.461 141.85 111.526 142.558 112.228C143.732 113.393 145.479 112.942 145.552 112.922V112.923Z" fill="url(#paint13_linear_3466_1243)"/>
<path d="M214.515 170.451L213.607 167.353L217.399 164.567L219.763 163.69L218.363 168.026L214.515 170.451Z" fill="url(#paint14_linear_3466_1243)"/>
<path d="M209.821 232.86C209.821 232.86 211.895 238.033 211.35 240.327C213.577 240.284 215.018 240.002 215.018 240.002C215.018 240.002 214.123 237.643 213.948 236.474C213.712 234.895 213.73 232.34 213.73 232.34L209.822 232.86H209.821Z" fill="url(#paint15_linear_3466_1243)"/>
<path d="M186.959 244.959C187.093 245.12 187.331 245.455 187.35 245.909C187.361 246.156 187.304 246.359 187.232 246.546C186.878 247.468 186.324 247.59 185.724 248.569C185.357 249.167 185.427 249.348 185.092 249.617C184.65 249.974 184.115 249.993 183.651 249.999C182.867 250.007 181.739 249.98 180.319 249.812C181.063 248.861 181.854 247.895 182.696 246.919C183.065 246.491 183.434 246.074 183.801 245.665L185.99 244.932C186.312 244.941 186.635 244.949 186.958 244.958L186.959 244.959Z" fill="#26264F"/>
<path d="M185.138 234.425C185.138 234.425 183.888 240.897 185.479 242.708C186.835 244.52 184.824 243.228 184.824 243.228L182.422 245.306L180.981 247.774C180.981 247.774 182.308 241.44 181.954 238.926C181.6 236.413 181.424 234.717 181.424 234.717L185.138 234.425Z" fill="url(#paint16_linear_3466_1243)"/>
<path d="M180.422 163.638C180.422 163.638 177.061 166.62 177.061 178.895C177.061 191.17 178.653 217.824 178.653 217.824L181.201 236.907C181.201 236.907 183.843 237 185.611 236.474C187.203 229.284 189.797 217.122 188.559 206.952C188.028 195.905 192.981 182.051 192.981 182.051C192.981 182.051 197.226 196.08 200.233 203.094C203.24 210.108 208.965 232.082 209.495 233.661C213.014 233.977 214.517 233.055 214.517 233.055C214.517 233.055 212.261 209.406 210.138 200.463C208.016 191.521 208.193 169.951 204.655 163.813C196.696 160.657 180.423 163.638 180.423 163.638H180.422Z" fill="url(#paint17_linear_3466_1243)"/>
<path d="M180.422 163.638C180.422 163.638 177.061 166.62 177.061 178.895C177.061 191.17 178.653 217.824 178.653 217.824L181.201 236.907C181.201 236.907 183.843 237 185.611 236.474C187.203 229.284 189.797 217.122 188.559 206.952C188.028 195.905 192.981 182.051 192.981 182.051C192.981 182.051 197.226 196.08 200.233 203.094C203.24 210.108 208.965 232.082 209.495 233.661C213.014 233.977 214.517 233.055 214.517 233.055C214.517 233.055 212.261 209.406 210.138 200.463C208.016 191.521 208.193 169.951 204.656 163.813C196.696 160.657 180.424 163.638 180.424 163.638H180.422Z" fill="url(#paint18_linear_3466_1243)"/>
<path style="mix-blend-mode:multiply" opacity="0.25" d="M197.88 186.129C198.928 192.882 201.024 196.519 206.263 201.194C210.455 204.311 207.312 211.064 208.883 216.258C209.407 217.816 210.979 219.375 211.503 220.933C213.453 224.799 211.632 229.529 212.516 233.622C213.892 233.433 214.516 233.054 214.516 233.054C214.516 233.054 212.26 209.405 210.138 200.463C208.015 191.52 208.192 169.95 204.655 163.812C196.696 160.656 180.423 163.637 180.423 163.637C180.423 163.637 177.062 166.619 177.062 178.894C177.062 179.89 177.073 180.981 177.092 182.145C180.581 185.206 187.716 185.886 192.117 182.493C192.383 182.296 192.665 182.174 192.958 182.115C192.972 182.077 192.981 182.05 192.981 182.05C192.981 182.05 192.988 182.074 193 182.111C195.002 181.748 197.427 184.327 197.881 186.129L197.88 186.129Z" fill="url(#paint19_linear_3466_1243)"/>
<path d="M210.804 242.29C210.804 242.29 210.287 242.29 210.33 242.952C210.373 243.614 210.098 245.891 212.725 245.998C215.353 246.105 215.758 245.813 215.844 245.813C215.929 245.813 215.155 243.634 215.155 243.634L214.314 242.566L212.053 242.332L210.804 242.289V242.29Z" fill="#26264F"/>
<path d="M216.631 244.576C216.575 244.026 216.264 243.161 215.952 242.465C215.488 241.43 215.869 241.042 215.425 240.1C215.272 239.774 215.122 239.465 214.799 239.159C214.724 239.089 213.999 238.424 212.944 238.458C212.736 238.465 212.416 238.479 212.07 238.662C211.663 238.877 211.459 239.2 211.284 239.484C211.01 239.931 211.073 240.067 210.651 241.346C210.617 241.448 210.543 241.672 210.485 241.979C210.441 242.215 210.424 242.412 210.416 242.548C211.105 242.548 213.754 242.655 214.314 243.06C214.875 243.465 215.155 244.149 215.155 244.832C215.155 245.515 215.5 245.836 215.844 245.815C216.152 245.796 216.763 245.23 216.63 244.577L216.631 244.576Z" fill="#444B8C"/>
<path d="M184.803 241.799C185.394 241.808 185.828 242.275 186.156 243.401C186.484 244.527 188.055 245.523 186.222 245.284C184.388 245.046 183.056 247.622 182.402 248.574C181.747 249.527 179.988 250.373 180.032 249.442C180.075 248.512 180.852 248.076 181.07 247.124C181.288 246.172 183.453 241.779 184.803 241.799Z" fill="#444B8C"/>
<path d="M213.174 159.333C213.254 158.061 213.644 149.743 207.406 144.057C202.299 139.402 195.788 139.28 194.864 139.277C189.236 139.252 187.21 141.951 185.048 140.627C181.381 138.383 181.484 127.106 186.955 123.276C193.122 118.959 203.984 125.594 209.05 130.548C215.695 137.047 216.88 145.069 217.093 146.729C217.646 151.045 217.04 154.634 216.475 156.893C215.375 157.706 214.275 158.519 213.175 159.332L213.174 159.333Z" fill="url(#paint20_linear_3466_1243)"/>
<path d="M183.057 122.811C176.869 124.332 172.178 125.787 170.288 129.196C168.291 132.796 172.059 135.125 173.586 142.596C175.925 154.035 169.546 158.833 172.328 170.32C173.265 174.19 174.831 177.123 175.889 178.856C178.035 180.347 181.418 182.35 185.897 183.548C192.414 185.293 195.455 183.785 204.041 183.651C218.085 183.432 220.474 187.302 226.611 184.372C232.813 181.412 236.938 174.323 235.372 171.536C234.433 169.866 231.954 171.13 228.128 169.274C223.198 166.881 223.717 163.092 219.645 160.168C213.795 155.968 208.834 160.995 203.826 157.337C198.761 153.636 197.467 143.841 199.063 137.838C200.106 133.918 199.824 129.756 200.519 125.76C200.576 125.428 200.602 124.904 200.355 124.328C199.407 122.129 195.211 121.997 192.043 121.926C187.21 121.818 183.568 122.687 183.058 122.812L183.057 122.811Z" fill="url(#paint21_linear_3466_1243)"/>
<path d="M177.83 124.046L178.929 123.33C178.929 123.33 179.72 124.859 183.658 123.943C185.811 123.323 186.852 121.726 186.852 121.726L187.851 122.084C187.851 122.084 186.699 124.845 183.806 125.617C180.072 126.613 177.829 124.046 177.829 124.046H177.83Z" fill="url(#paint22_linear_3466_1243)"/>
<path d="M178.843 118.411C178.554 116.566 179.639 115.018 179.876 114.684C180.872 113.289 181.107 113.11 181.527 112.898L182.108 112.632C182.108 112.632 182.141 112.623 182.176 112.616C182.538 112.535 183.725 112.64 183.959 112.719C184.704 112.973 185.145 116.162 184.383 120.507C184.404 120.851 184.424 121.193 184.445 121.537C186.165 121.351 186.656 121.527 186.738 121.757C186.914 122.255 185.312 123.418 183.663 123.938C181.597 124.591 179.124 124.34 178.973 123.665C178.912 123.392 179.207 122.947 180.624 122.186C180.764 121.789 180.903 121.392 181.043 120.993C180.753 120.797 179.058 119.771 178.844 118.412L178.843 118.411Z" fill="url(#paint23_linear_3466_1243)"/>
<path d="M181.221 117C181.611 116.584 182.148 117.082 182.079 117.673C182.011 118.264 181.36 118.809 180.815 118.626C180.269 118.443 180.696 117.56 181.221 117.001V117Z" fill="url(#paint24_linear_3466_1243)"/>
<path d="M242.439 99.3486C234.261 94.4513 220.332 100.455 213.883 108.139C210.887 111.709 209.838 115.209 205.504 116.726C202.21 117.88 196.516 118.167 192.656 115.378C192.169 115.027 190.198 113.534 187.373 111.749C186.127 110.962 184.905 110.239 183.397 110.43C183.013 110.479 181.736 110.634 181.159 111.646C180.691 112.467 180.854 113.613 181.279 114.35C181.533 114.792 181.697 114.798 181.767 115.115C181.962 116.004 180.472 116.845 180.69 117.259C180.845 117.554 181.645 117.199 181.904 117.551C182.188 117.938 181.381 118.573 181.307 119.772C180.713 120.474 180.604 121.826 180.92 123.501C181.386 125.963 182.198 127.839 183.086 129.173C187.358 135.593 190.414 140.185 195.055 141.905C201.198 144.181 204.736 139.426 217.423 135.178C234.795 129.363 240.914 134.01 246.051 128.144C252.464 120.82 250.93 104.432 242.438 99.3477L242.439 99.3486Z" fill="url(#paint25_linear_3466_1243)"/>
<path d="M146.171 112.284C146.442 113.789 147.803 120.397 153.892 124.553C159.582 128.437 165.823 127.742 166.977 127.589C172.555 126.85 174.19 123.902 176.513 124.92C180.456 126.647 181.909 137.832 177.017 142.367C171.503 147.479 159.829 142.379 154.127 138.159C146.648 132.621 144.368 124.836 143.928 123.219C142.785 119.018 142.89 115.382 143.138 113.068C143.459 112.861 143.96 112.592 144.622 112.425C145.253 112.267 145.798 112.26 146.17 112.284H146.171Z" fill="url(#paint26_linear_3466_1243)"/>
<path style="mix-blend-mode:multiply" opacity="0.3" d="M225.554 180.047C223.524 178.908 224.306 175.205 221.297 173.487C218.504 171.893 216.599 174.38 212.589 173.471C207.445 172.306 207.355 167.484 202.421 166.3C198.872 165.448 197.988 167.719 192.993 168.175C188.008 168.63 181.312 167.061 176.782 162.113C174.857 160.011 173.699 157.703 173.001 155.544C171.98 159.916 170.835 164.154 172.328 170.32C173.265 174.19 174.831 177.123 175.889 178.856C178.035 180.347 181.418 182.35 185.897 183.548C192.414 185.293 195.455 183.785 204.041 183.651C218.085 183.432 220.474 187.302 226.611 184.372C230.574 182.479 233.681 178.904 235.004 175.841C229.77 180.227 227.028 180.874 225.554 180.047Z" fill="url(#paint27_linear_3466_1243)"/>
</svg>
