<svg width="255" height="242" viewBox="0 0 255 242" fill="none" xmlns="http://www.w3.org/2000/svg">
<path d="M225.521 11.891C222.659 9.5755 218.317 8.31527 214.647 8.05973C188.635 6.26052 184.836 59.4327 188.823 71.3164C192.811 83.2001 190.227 87.102 169.737 93.3194C149.247 99.5368 159.078 111.508 161.576 118.508C164.074 125.509 169.017 131.423 154.084 138.379C139.151 145.335 144.339 149.644 144.339 149.644C144.339 149.644 171.883 177.196 170.361 168.375C168.84 159.554 171.597 146.235 196.292 145.223C206.93 144.787 223.219 139.825 226.826 128.688C227.666 126.094 228.253 122.133 227.611 119.448C226.725 115.724 224.222 112.791 222.838 109.286C219.603 101.118 227.715 95.1369 232.381 89.6774C234.817 86.8272 237.253 83.9047 239.12 80.6552C242.995 73.9084 241.544 66.6731 237.325 60.454C235.302 57.4721 232.49 54.308 231.608 50.7515C230.66 46.9298 231.485 41.7092 231.711 37.7785C231.889 34.6955 232.187 31.6248 232.011 28.5339C231.682 22.7857 230.306 15.7668 225.521 11.891Z" fill="url(#paint0_linear_6509_827)"/>
<g style="mix-blend-mode:soft-light" opacity="0.8">
<path d="M142.169 165.108C142.077 165.141 141.976 165.138 141.886 165.1C141.796 165.063 141.725 164.993 141.685 164.906C141.646 164.818 141.643 164.719 141.675 164.629C141.708 164.539 141.774 164.465 141.861 164.421C141.977 164.362 153.573 158.397 166.509 148.573C178.428 139.522 193.957 125.248 200.243 108.657C205.495 94.7986 210.283 71.8903 213.382 45.8048C216.161 22.4134 216.6 5.11373 215.419 1.90254C215.401 1.85604 215.394 1.8067 215.396 1.75735C215.399 1.70799 215.411 1.65957 215.433 1.61487C215.454 1.57017 215.484 1.53005 215.522 1.49681C215.559 1.46356 215.603 1.43785 215.65 1.42112C215.698 1.4044 215.748 1.397 215.799 1.39935C215.849 1.4017 215.899 1.41374 215.945 1.4348C215.99 1.45585 216.031 1.48551 216.065 1.52207C216.099 1.55863 216.126 1.60138 216.143 1.64788C217.524 5.40415 216.648 24.8387 214.147 45.8912C211.041 72.0342 206.237 95.0062 200.965 108.918C194.613 125.68 178.972 140.062 166.97 149.176C153.981 159.038 142.334 165.028 142.218 165.087C142.202 165.095 142.186 165.102 142.169 165.108Z" fill="white"/>
<path d="M213.34 50.3391C213.141 50.4089 212.938 50.3548 212.865 50.1647C212.769 49.903 203.072 24.3931 190.568 18.6327C190.523 18.6127 190.483 18.584 190.449 18.5483C190.416 18.5127 190.39 18.4708 190.373 18.4251C190.356 18.3794 190.349 18.331 190.352 18.2826C190.355 18.2342 190.368 18.1869 190.39 18.1434C190.435 18.0538 190.514 17.9852 190.61 17.9525C190.706 17.9198 190.812 17.9257 190.904 17.969C203.696 23.8611 213.192 48.8425 213.591 49.903C213.664 50.0975 213.547 50.2728 213.347 50.3391H213.34Z" fill="white"/>
<path d="M208.613 79.9279C208.527 79.9583 208.434 79.9582 208.348 79.9276C208.263 79.8969 208.192 79.8377 208.147 79.7605C208.102 79.6832 208.086 79.5929 208.103 79.5056C208.12 79.4182 208.168 79.3395 208.238 79.2834C208.309 79.2258 215.449 73.4985 224.26 68.6922C236.163 62.1983 245.285 60.3851 251.372 63.3042C251.418 63.3259 251.458 63.3562 251.491 63.3933C251.525 63.4303 251.55 63.4735 251.567 63.5202C251.583 63.5669 251.59 63.6163 251.587 63.6656C251.583 63.7149 251.57 63.7631 251.548 63.8074C251.526 63.8517 251.495 63.8913 251.457 63.9239C251.419 63.9566 251.375 63.9816 251.327 63.9975C251.279 64.0135 251.229 64.0201 251.178 64.0169C251.128 64.0138 251.079 64.001 251.033 63.9792C237.026 57.2638 209.007 79.6375 208.725 79.8642C208.692 79.8915 208.654 79.913 208.613 79.9279Z" fill="white"/>
<path d="M177.526 140.408C177.486 140.422 177.444 140.429 177.402 140.429C177.351 140.43 177.301 140.422 177.254 140.403C177.207 140.385 177.164 140.358 177.128 140.324C177.092 140.29 177.063 140.249 177.043 140.203C177.023 140.158 177.012 140.109 177.011 140.06C177.011 139.95 176.811 129.003 174.469 117.471C172.32 106.896 167.884 93.6492 158.95 90.5967C158.858 90.5606 158.784 90.4912 158.743 90.403C158.702 90.3148 158.697 90.2146 158.73 90.1231C158.762 90.0316 158.83 89.9559 158.918 89.9117C159.006 89.8676 159.108 89.8583 159.203 89.8859C166.652 92.4317 172.046 101.667 175.224 117.335C177.579 128.934 177.777 139.94 177.779 140.05C177.78 140.128 177.756 140.204 177.711 140.268C177.665 140.332 177.601 140.381 177.526 140.408Z" fill="white"/>
<path d="M193.422 122.722C193.335 122.751 193.24 122.749 193.155 122.717C193.07 122.684 192.999 122.622 192.956 122.543C192.913 122.464 192.9 122.372 192.92 122.285C192.94 122.197 192.992 122.12 193.065 122.066C194.304 121.17 223.525 100.162 234.92 102.169C234.97 102.178 235.017 102.196 235.06 102.223C235.102 102.249 235.139 102.284 235.168 102.325C235.197 102.365 235.217 102.411 235.228 102.459C235.239 102.507 235.239 102.557 235.23 102.606C235.222 102.655 235.203 102.701 235.176 102.743C235.148 102.784 235.113 102.82 235.071 102.848C235.03 102.876 234.983 102.896 234.934 102.907C234.884 102.917 234.833 102.918 234.784 102.909C223.711 100.96 193.823 122.453 193.522 122.67C193.492 122.692 193.458 122.709 193.422 122.722Z" fill="white"/>
</g>
<path d="M248.353 90.2108C246.461 87.0851 242.812 84.4617 239.447 83.0079C215.59 72.7036 193.618 121.486 193.257 133.988C192.897 146.49 189.116 149.307 167.685 148.378C146.254 147.449 151.364 161.966 151.288 169.38C151.212 176.794 153.823 183.996 137.361 185.602C120.899 187.209 124.291 192.979 124.291 192.979C124.291 192.979 140.678 228.02 142.298 219.216C143.919 210.412 151.121 198.79 174.711 206.009C184.871 209.119 201.913 209.84 209.165 200.552C210.853 198.389 212.773 194.855 213.101 192.118C213.555 188.321 212.219 184.733 212.126 180.975C211.908 172.219 221.611 169.275 227.893 165.683C231.172 163.807 234.476 161.863 237.357 159.422C243.338 154.355 244.476 147.067 242.658 139.819C241.786 136.343 240.235 132.435 240.635 128.797C241.065 124.887 243.649 120.25 245.221 116.623C246.455 113.781 247.8 110.99 248.699 108.023C250.381 102.501 251.516 95.4366 248.353 90.2108Z" fill="url(#paint1_linear_6509_827)"/>
<g style="mix-blend-mode:soft-light" opacity="0.8">
<path d="M116.902 206.81C116.805 206.81 116.711 206.773 116.64 206.708C116.569 206.643 116.526 206.554 116.519 206.459C116.513 206.364 116.543 206.27 116.605 206.197C116.666 206.123 116.754 206.074 116.85 206.062C116.98 206.044 129.956 204.268 145.527 199.304C159.876 194.731 179.427 186.438 191.085 172.905C200.821 161.602 213.255 141.629 225.197 118.108C235.906 97.0162 242.306 80.8817 242.306 77.4665C242.306 77.3668 242.346 77.2712 242.418 77.2007C242.49 77.1302 242.588 77.0906 242.69 77.0906C242.792 77.0906 242.89 77.1302 242.962 77.2007C243.034 77.2712 243.074 77.3668 243.074 77.4665C243.074 81.4591 235.525 99.4564 225.886 118.44C213.917 142.013 201.449 162.04 191.674 173.384C179.896 187.056 160.201 195.415 145.753 200.019C130.118 205.001 117.085 206.784 116.955 206.801C116.938 206.805 116.92 206.808 116.902 206.81Z" fill="white"/>
<path d="M223.588 122.438C223.538 122.439 223.489 122.43 223.443 122.413C223.396 122.395 223.354 122.368 223.318 122.335C223.283 122.301 223.254 122.26 223.234 122.216C223.215 122.171 223.204 122.123 223.204 122.074C223.204 121.8 222.905 94.5629 213.13 85.0086C213.094 84.974 213.066 84.9328 213.046 84.8874C213.027 84.8419 213.017 84.7932 213.017 84.744C213.017 84.6947 213.027 84.646 213.046 84.6006C213.066 84.5551 213.094 84.5139 213.13 84.4793C213.166 84.4443 213.208 84.4166 213.255 84.3976C213.301 84.3787 213.352 84.369 213.402 84.369C213.453 84.369 213.503 84.3787 213.549 84.3976C213.596 84.4166 213.638 84.4443 213.674 84.4793C223.673 94.2567 223.965 120.941 223.973 122.073C223.973 122.121 223.964 122.17 223.944 122.215C223.925 122.26 223.897 122.301 223.861 122.336C223.826 122.37 223.783 122.397 223.737 122.415C223.69 122.433 223.641 122.442 223.591 122.441L223.588 122.438Z" fill="white"/>
<path d="M208.9 148.639C208.809 148.639 208.722 148.608 208.653 148.551C208.584 148.494 208.537 148.414 208.522 148.327C208.506 148.24 208.522 148.15 208.568 148.074C208.613 147.997 208.685 147.939 208.77 147.909C208.859 147.879 217.557 144.851 227.511 143.244C240.96 141.071 250.172 142.384 254.892 147.145C254.927 147.181 254.954 147.223 254.973 147.269C254.992 147.315 255.001 147.364 255 147.413C254.999 147.462 254.988 147.511 254.968 147.556C254.948 147.602 254.919 147.643 254.883 147.677C254.847 147.711 254.804 147.738 254.757 147.757C254.71 147.775 254.66 147.784 254.61 147.783C254.559 147.782 254.509 147.772 254.463 147.752C254.417 147.733 254.375 147.704 254.339 147.669C243.482 136.715 209.373 148.497 209.033 148.617C208.99 148.632 208.945 148.64 208.9 148.639Z" fill="white"/>
<path d="M158.719 195.265C158.677 195.266 158.634 195.259 158.594 195.245C158.498 195.213 158.418 195.144 158.374 195.055C158.329 194.965 158.322 194.862 158.355 194.767C158.391 194.664 161.993 184.302 163.779 172.668C165.417 162.006 165.831 148.073 158.476 142.244C158.397 142.181 158.347 142.09 158.336 141.991C158.325 141.892 158.356 141.793 158.42 141.715C158.484 141.638 158.577 141.588 158.679 141.578C158.78 141.568 158.881 141.597 158.961 141.66C165.09 146.519 166.966 156.993 164.538 172.79C162.741 184.485 159.119 194.907 159.083 195.011C159.057 195.085 159.008 195.149 158.943 195.195C158.877 195.241 158.799 195.265 158.719 195.265Z" fill="white"/>
<path d="M179.797 183.882C179.704 183.882 179.615 183.85 179.545 183.791C179.475 183.732 179.429 183.65 179.416 183.561C179.402 183.472 179.422 183.381 179.472 183.304C179.521 183.228 179.597 183.172 179.686 183.146C181.161 182.71 215.928 172.614 225.957 178.273C226.001 178.297 226.039 178.33 226.07 178.369C226.1 178.409 226.123 178.453 226.136 178.501C226.149 178.549 226.153 178.599 226.146 178.647C226.139 178.696 226.123 178.744 226.098 178.786C226.073 178.829 226.039 178.867 225.999 178.897C225.959 178.927 225.913 178.949 225.864 178.962C225.815 178.975 225.765 178.978 225.715 178.971C225.664 178.965 225.616 178.949 225.572 178.924C215.827 173.43 180.266 183.762 179.909 183.867C179.872 183.877 179.835 183.882 179.797 183.882Z" fill="white"/>
</g>
<path d="M168.382 2.33566L168.107 4.25435C167.204 4.29334 166.306 4.41008 165.424 4.60321L164.68 2.80836C164.632 2.69143 164.561 2.58501 164.47 2.49529C164.379 2.40556 164.272 2.33429 164.153 2.28563C164.034 2.23696 163.906 2.21185 163.777 2.21175C163.648 2.21166 163.52 2.23658 163.401 2.28508L160.247 3.55665C160.005 3.6537 159.811 3.84002 159.709 4.07534C159.606 4.31066 159.602 4.57609 159.698 4.81426L160.445 6.63179C159.68 7.10759 158.957 7.64681 158.287 8.24349L156.7 7.04518C156.492 6.88976 156.229 6.82131 155.969 6.85482C155.709 6.88832 155.474 7.02105 155.314 7.22396L153.194 9.87525C153.113 9.97473 153.053 10.0888 153.018 10.211C152.982 10.3331 152.971 10.461 152.986 10.5872C153.001 10.7134 153.041 10.8355 153.104 10.9465C153.168 11.0575 153.253 11.1552 153.355 11.234L154.946 12.4437C154.517 13.2307 154.159 14.0524 153.875 14.8996L151.857 14.638C151.594 14.6063 151.329 14.6764 151.119 14.8334C150.908 14.9903 150.768 15.2216 150.73 15.4778L150.222 18.8216C150.202 18.9475 150.208 19.0761 150.24 19.1998C150.271 19.3235 150.328 19.4398 150.406 19.542C150.484 19.6441 150.582 19.73 150.694 19.7947C150.806 19.8594 150.931 19.9016 151.06 19.9187L153.083 20.1804C153.106 21.0722 153.208 21.9605 153.388 22.8351L151.491 23.6157C151.245 23.7161 151.048 23.9069 150.943 24.1472C150.838 24.3875 150.833 24.6584 150.93 24.9021L152.195 28.047C152.243 28.1662 152.315 28.2748 152.407 28.3664C152.498 28.458 152.608 28.5307 152.728 28.5803C152.849 28.6299 152.979 28.6553 153.11 28.6551C153.241 28.6549 153.37 28.629 153.491 28.579L155.392 27.8011C155.869 28.5604 156.414 29.2774 157.02 29.9439L155.754 31.5521C155.589 31.7585 155.513 32.0202 155.544 32.2805C155.575 32.5409 155.709 32.7789 155.918 32.9431L158.633 35.0258C158.737 35.1048 158.857 35.1626 158.985 35.1959C159.112 35.2293 159.245 35.2375 159.376 35.22C159.507 35.2026 159.633 35.1598 159.747 35.0943C159.861 35.0288 159.961 34.9417 160.04 34.8383L161.289 33.2414C162.097 33.6607 162.943 34.0084 163.815 34.2801L163.531 36.2738C163.511 36.4018 163.517 36.5324 163.549 36.658C163.581 36.7836 163.639 36.9017 163.718 37.0055C163.797 37.1092 163.896 37.1966 164.01 37.2625C164.124 37.3284 164.25 37.3715 164.382 37.3893L167.81 37.8253C168.078 37.8574 168.347 37.7841 168.56 37.6217C168.772 37.4593 168.91 37.221 168.943 36.9593L169.22 34.9813C170.141 34.9448 171.057 34.8274 171.957 34.6307L172.709 36.4622C172.757 36.5822 172.83 36.6916 172.922 36.7838C173.014 36.8761 173.124 36.9493 173.246 36.9991C173.367 37.0489 173.498 37.0744 173.63 37.074C173.762 37.0736 173.892 37.0474 174.014 36.9968L177.21 35.6729C177.457 35.5687 177.652 35.3742 177.753 35.1312C177.855 34.8882 177.855 34.6159 177.754 34.3726L177.002 32.5577C177.783 32.0644 178.518 31.5056 179.2 30.8875L180.763 32.0754C180.867 32.154 180.986 32.2117 181.113 32.2449C181.24 32.2781 181.372 32.2863 181.503 32.2689C181.633 32.2515 181.758 32.209 181.871 32.1437C181.985 32.0784 182.083 31.9917 182.162 31.8887L184.255 29.1747C184.416 28.9666 184.486 28.7051 184.452 28.4466C184.417 28.188 184.28 27.953 184.07 27.7923L182.522 26.6193C182.948 25.8082 183.299 24.9618 183.573 24.0901L185.509 24.3387C185.639 24.3547 185.771 24.3454 185.897 24.3115C186.023 24.2775 186.141 24.2196 186.244 24.1409C186.348 24.0622 186.434 23.9644 186.498 23.853C186.563 23.7416 186.604 23.6189 186.62 23.4918L187.06 20.1385C187.094 19.8828 187.024 19.6242 186.863 19.4193C186.703 19.2144 186.467 19.0798 186.206 19.0448L184.276 18.7972C184.237 17.8947 184.118 16.9973 183.919 16.1154L185.709 15.3828C185.952 15.2833 186.144 15.0939 186.244 14.8559C186.345 14.6179 186.344 14.3508 186.244 14.1129L184.936 11.0212C184.888 10.9038 184.815 10.7969 184.724 10.7069C184.633 10.6169 184.524 10.5455 184.404 10.4969C184.284 10.4482 184.156 10.4232 184.026 10.4234C183.897 10.4236 183.768 10.4489 183.649 10.4979L181.846 11.2314C181.357 10.479 180.801 9.77011 180.185 9.113L181.374 7.59462C181.533 7.39221 181.604 7.13634 181.571 6.8831C181.537 6.62987 181.402 6.39992 181.196 6.24369L178.507 4.22296C178.405 4.14562 178.288 4.08878 178.163 4.05568C178.039 4.02259 177.909 4.01389 177.78 4.0301C177.652 4.04631 177.529 4.08709 177.417 4.15012C177.305 4.21315 177.207 4.29718 177.128 4.39738L175.931 5.91751C175.128 5.51116 174.289 5.17524 173.425 4.91369L173.693 3.00459C173.71 2.87997 173.702 2.75318 173.67 2.63154C173.637 2.5099 173.58 2.39581 173.502 2.29584C173.423 2.19588 173.326 2.11202 173.215 2.0491C173.103 1.98619 172.98 1.94545 172.853 1.92925L169.493 1.49842C169.364 1.48189 169.232 1.49045 169.107 1.52361C168.981 1.55676 168.863 1.61386 168.76 1.69163C168.656 1.7694 168.57 1.86631 168.505 1.97683C168.44 2.08734 168.398 2.20928 168.382 2.33566ZM156.537 17.9163C157.507 11.309 163.709 6.67714 170.394 7.53793C177.078 8.39873 181.772 14.4278 180.875 21.0412C179.971 27.6981 173.757 32.4216 166.999 31.5547C160.242 30.6878 155.559 24.5637 156.537 17.9163Z" fill="#D8DEE8"/>
<path d="M116.866 1.28923L116.44 4.26408C115.044 4.32416 113.656 4.50392 112.292 4.80131L111.143 2.02619C111.067 1.8459 110.956 1.68198 110.816 1.5439C110.675 1.40582 110.508 1.29632 110.324 1.22171C110.141 1.14711 109.943 1.10888 109.744 1.10924C109.545 1.10961 109.348 1.14855 109.164 1.22382L104.288 3.18874C103.913 3.33831 103.614 3.62628 103.455 3.9902C103.296 4.35412 103.29 4.76463 103.439 5.13272L104.598 7.94273C103.415 8.67919 102.298 9.51307 101.26 10.4353L98.808 8.57677C98.4861 8.33749 98.0805 8.23229 97.6796 8.28407C97.2787 8.33585 96.9149 8.54042 96.6675 8.85324L93.3908 12.9523C93.2656 13.106 93.1727 13.2823 93.1174 13.4712C93.062 13.6602 93.0454 13.8579 93.0684 14.0531C93.0915 14.2483 93.1537 14.4372 93.2516 14.6088C93.3495 14.7804 93.481 14.9315 93.6388 15.0532L96.0976 16.9222C95.437 18.1394 94.8852 19.4102 94.4486 20.7203L91.327 20.32C90.9205 20.2711 90.5104 20.3797 90.1846 20.6225C89.8588 20.8654 89.643 21.2232 89.5835 21.6195L88.7995 26.7895C88.7684 26.9836 88.7771 27.1818 88.825 27.3725C88.8729 27.5633 88.9592 27.7429 89.0786 27.9008C89.1981 28.0587 89.3485 28.1918 89.5211 28.2924C89.6936 28.393 89.8849 28.459 90.0838 28.4867L93.2133 28.8879C93.2481 30.267 93.4057 31.6406 93.6842 32.993L90.7473 34.1904C90.3662 34.3462 90.0622 34.6412 89.9 35.0127C89.7378 35.3841 89.7301 35.8028 89.8787 36.1798L91.8354 41.0419C91.9095 41.2264 92.0206 41.3945 92.1623 41.5363C92.304 41.678 92.4733 41.7906 92.6602 41.8673C92.8471 41.9439 93.0479 41.9832 93.2506 41.9827C93.4533 41.9822 93.6538 41.9419 93.8403 41.8643L96.7781 40.6617C97.5171 41.8359 98.3596 42.9448 99.2959 43.9758L97.3338 46.4622C97.0784 46.7811 96.9618 47.1856 97.0092 47.5879C97.0566 47.9903 97.2642 48.3582 97.587 48.612L101.785 51.8328C101.947 51.9549 102.132 52.0444 102.329 52.0959C102.527 52.1475 102.732 52.1601 102.935 52.1331C103.137 52.106 103.332 52.0399 103.508 51.9385C103.684 51.8371 103.838 51.7024 103.96 51.5424L105.895 49.0725C107.145 49.7215 108.453 50.2591 109.802 50.679L109.361 53.762C109.331 53.9605 109.341 54.1629 109.392 54.3575C109.442 54.5522 109.531 54.735 109.654 54.8956C109.778 55.0561 109.932 55.1911 110.109 55.2926C110.286 55.3941 110.482 55.4602 110.686 55.487L115.986 56.1664C116.397 56.2141 116.811 56.1015 117.138 55.8528C117.465 55.6042 117.678 55.2396 117.732 54.8382L118.159 51.7787C119.584 51.7207 121.002 51.538 122.394 51.2328L123.554 54.0594C123.629 54.2448 123.741 54.4136 123.883 54.556C124.026 54.6985 124.196 54.8115 124.384 54.8886C124.572 54.9656 124.774 55.0051 124.978 55.0047C125.182 55.0042 125.383 54.9639 125.571 54.8861L130.518 52.8323C130.899 52.6714 131.199 52.3716 131.357 51.9969C131.514 51.6221 131.515 51.202 131.36 50.8264L130.201 48.0198C131.408 47.2574 132.545 46.3933 133.598 45.4375L136.014 47.2689C136.174 47.3908 136.358 47.4802 136.554 47.5318C136.75 47.5833 136.955 47.5961 137.156 47.5693C137.358 47.5425 137.551 47.4767 137.726 47.3757C137.901 47.2747 138.054 47.1405 138.175 46.9811L141.412 42.7853C141.661 42.4634 141.77 42.0592 141.716 41.6595C141.663 41.2598 141.451 40.8965 141.127 40.6477L138.732 38.8337C139.39 37.5816 139.934 36.2753 140.357 34.93L143.35 35.3137C143.551 35.3385 143.755 35.3243 143.95 35.2719C144.145 35.2195 144.328 35.13 144.487 35.0085C144.647 34.887 144.781 34.7358 144.88 34.5637C144.98 34.3916 145.044 34.2019 145.069 34.0055L145.748 28.8216C145.801 28.4261 145.692 28.0259 145.445 27.7088C145.197 27.3917 144.831 27.1834 144.427 27.1297L141.443 26.7468C141.384 25.3517 141.201 23.9642 140.893 22.6007L143.658 21.4669C144.033 21.3123 144.33 21.0189 144.484 20.6508C144.638 20.2828 144.637 19.87 144.48 19.5028L142.459 14.7244C142.383 14.5429 142.271 14.3779 142.13 14.2389C141.989 14.0999 141.821 13.9897 141.636 13.9146C141.45 13.8395 141.252 13.801 141.051 13.8014C140.851 13.8018 140.653 13.841 140.468 13.9168L137.684 15.0506C136.928 13.8875 136.068 12.7914 135.116 11.7749L136.955 9.4271C137.077 9.27185 137.167 9.09449 137.22 8.90518C137.272 8.71587 137.285 8.51834 137.259 8.32389C137.234 8.12945 137.169 7.94193 137.068 7.77206C136.968 7.60219 136.835 7.45332 136.676 7.33398L132.518 4.21001C132.198 3.97072 131.794 3.86534 131.394 3.91701C130.995 3.96867 130.633 4.17316 130.387 4.4856L128.537 6.84036C127.294 6.21182 125.997 5.6926 124.661 5.28883L125.073 2.33667C125.1 2.14431 125.087 1.94874 125.036 1.76118C124.985 1.57363 124.897 1.39778 124.776 1.24374C124.655 1.08969 124.505 0.960482 124.333 0.863525C124.161 0.766567 123.971 0.703771 123.774 0.678742L118.58 0.0124329C118.18 -0.0382705 117.775 0.0673606 117.454 0.306401C117.133 0.545441 116.922 0.898602 116.866 1.28923ZM98.5511 25.3854C100.052 15.1692 109.641 8.00727 119.976 9.33291C130.31 10.6586 137.569 19.9817 136.182 30.2118C134.785 40.5029 125.176 47.807 114.728 46.4666C104.28 45.1261 97.0403 35.6626 98.5511 25.3854Z" fill="#D8DEE8"/>
<path d="M111.895 30.0957L89.1733 214.773C88.8326 217.542 90.7849 220.024 93.5184 220.289L188.156 230.449C193.953 230.802 197.127 227.906 197.486 224.961L221.341 28.6183C221.697 25.6905 218.851 23.0366 213.029 23.0366L117.531 25.0059C114.766 25.0512 112.234 27.3415 111.895 30.0957Z" fill="url(#paint2_linear_6509_827)"/>
<path d="M107.636 29.7782L84.7897 215.379C84.4473 218.161 86.4049 220.657 89.1492 220.924L187.261 230.476C190.338 230.775 193.157 228.599 193.516 225.64L217.507 28.2825C217.864 25.339 215.606 22.9738 212.496 23.0252L113.294 24.6622C110.519 24.7076 107.976 27.01 107.636 29.7782Z" fill="url(#paint3_linear_6509_827)"/>
<path d="M109.497 40.0119L88.3215 212.105C88.0022 214.704 89.8377 217.031 92.4044 217.275L184.676 226.046C187.535 226.318 190.156 224.287 190.491 221.532L212.66 39.22C212.994 36.4789 210.896 34.2619 208.007 34.2916L114.788 35.2622C112.194 35.2893 109.815 37.4286 109.497 40.0119Z" fill="#D8DEE8"/>
<path d="M158.978 29.6501C158.857 30.6382 159.582 31.4292 160.599 31.417C161.616 31.4048 162.541 30.5911 162.661 29.6012C162.782 28.6114 162.055 27.8203 161.037 27.8352C160.019 27.85 159.099 28.6628 158.978 29.6501Z" fill="url(#paint4_linear_6509_827)"/>
<g style="mix-blend-mode:soft-light">
<path d="M125.45 155.533C144.341 121.382 172.559 111.158 181.054 75.9602C185.646 56.9337 182.518 38.7201 177.248 23.6069L212.493 23.0252C215.603 22.9738 217.862 25.339 217.505 28.2825L193.513 225.64C193.157 228.599 190.335 230.775 187.259 230.476L110.133 222.967C109.566 192.365 117.03 170.756 125.45 155.533Z" fill="white"/>
</g>
<path d="M195.034 51.0879L195.495 53.522L186.003 53.5438L103.63 53.7348C101.511 53.7348 99.5617 55.452 99.2718 57.5609L79.608 186.074C79.3155 188.201 82.701 191.448 84.8076 191.607L121.353 194.353V194.31L176.017 198.409L176.15 198.463C178.484 198.638 180.625 196.981 180.927 194.737C180.927 194.737 180.927 194.746 180.927 194.746L199.345 57.5417C199.644 55.3125 197.381 51.0879 195.034 51.0879Z" fill="url(#paint5_linear_6509_827)"/>
<path d="M179.067 192.064C178.766 194.311 176.625 195.988 174.291 195.814L82.8535 188.95C80.7478 188.792 79.286 186.939 79.575 184.812L97.4506 54.9341C97.7405 52.8262 99.6883 51.1133 101.807 51.108L193.758 50.8604C196.104 50.8543 197.771 52.6535 197.47 54.8791L179.067 192.064Z" fill="url(#paint6_linear_6509_827)"/>
<path d="M180.282 120.639C180.132 121.752 179.069 122.582 177.908 122.54L97.431 119.668C96.3688 119.631 95.6214 118.775 95.7677 117.712L97.3498 106.244C97.4961 105.182 98.4656 104.463 99.5287 104.492L180.073 106.679C181.232 106.711 182.059 107.514 181.91 108.627L180.282 120.639Z" fill="white"/>
<path d="M177.165 143.939C177.015 145.055 175.951 146.006 174.791 145.945L94.3755 142.061C93.3133 142.009 92.5748 141.014 92.7211 139.952L94.3158 128.265C94.462 127.201 95.4404 126.29 96.5026 126.332L176.967 129.506C178.126 129.552 178.949 130.579 178.799 131.693L177.165 143.939Z" fill="white"/>
<path style="mix-blend-mode:multiply" opacity="0.1" d="M181.918 108.58C181.72 108.518 181.513 108.485 181.305 108.48L100.756 106.294C99.6937 106.263 98.7234 106.984 98.5789 108.044L96.9949 119.512C96.9949 119.543 96.9887 119.57 96.9851 119.599C96.1682 119.374 95.6473 118.617 95.7659 117.71L97.3508 106.243C97.4953 105.183 98.4656 104.462 99.5278 104.492L180.073 106.679C181.218 106.712 182.035 107.49 181.918 108.58Z" fill="url(#paint7_linear_6509_827)"/>
<path style="mix-blend-mode:multiply" opacity="0.1" d="M178.817 131.438C178.618 131.36 178.407 131.317 178.193 131.308L97.7308 128.135C96.6685 128.092 95.6884 129.007 95.5439 130.068L93.9475 141.755C93.938 141.829 93.9329 141.903 93.9323 141.977C93.1154 141.716 92.5945 140.86 92.7194 139.953L94.3158 128.266C94.4603 127.203 95.4396 126.291 96.5027 126.333L176.964 129.507C177.469 129.53 177.944 129.745 178.29 130.105C178.636 130.466 178.825 130.943 178.817 131.438Z" fill="url(#paint8_linear_6509_827)"/>
<path d="M155.779 162.825C156.016 161.066 154.744 159.446 152.936 159.344L111.31 157.007C109.586 156.91 107.993 158.33 107.76 160.043L106.041 172.704C105.807 174.42 107.003 176.061 108.726 176.176L150.333 178.96C152.14 179.081 153.804 177.589 154.041 175.827L155.779 162.825Z" fill="url(#paint9_linear_6509_827)"/>
<path d="M158.923 77.5198C158.374 81.5674 156.247 85.2207 153.224 87.9078C149.966 90.805 145.675 92.5684 141.212 92.4847C136.771 92.3975 133.034 90.5032 130.633 87.5406C128.42 84.8108 127.334 81.174 127.878 77.1919C129.008 68.9127 136.787 62.22 145.323 62.24C153.941 62.2592 160.062 69.0994 158.923 77.5198Z" fill="url(#paint10_linear_6509_827)"/>
<path d="M150.621 72.9191C150.129 76.5454 146.706 79.4505 142.99 79.4069C139.275 79.3633 136.696 76.4103 137.187 72.8101C137.677 69.2099 141.066 66.3075 144.768 66.324C148.487 66.3406 151.113 69.2928 150.621 72.9191Z" fill="white"/>
<path d="M153.228 87.9076C149.97 90.8049 145.678 92.5683 141.215 92.4846C136.775 92.3974 133.038 90.5031 130.637 87.5405C133.385 83.7981 137.915 81.3091 142.726 81.371C147.56 81.4321 151.459 84.0546 153.228 87.9076Z" fill="white"/>
<g style="mix-blend-mode:soft-light" opacity="0.4">
<path d="M197.472 54.8791L179.067 192.066C178.766 194.312 176.489 195.983 174.156 195.808L119.237 191.684C116.514 188.956 114.375 185.724 112.947 182.177C112.179 180.263 111.619 178.275 111.276 176.247C110.257 170.454 110.652 163.87 112.139 157.409C113.277 152.444 115.034 147.635 117.37 143.089C119.205 139.546 121.363 136.306 123.774 133.583C125.51 131.623 127.387 129.719 129.367 127.852C131.754 125.599 134.292 123.399 136.909 121.22C143.008 116.138 149.539 111.169 155.587 105.922C169.539 93.8189 180.859 80.2948 178.135 60.998C178.046 60.3875 177.198 55.7355 176.111 50.9109L193.624 50.8638C195.97 50.8542 197.771 52.6578 197.472 54.8791Z" fill="white"/>
</g>
<path d="M211.176 217.616C211.176 217.616 217.802 218.788 221.86 204.767C225.341 192.757 219.769 192.094 219.463 197.858C219.181 203.113 215.626 214.224 211.525 215.773C207.425 217.323 211.176 217.616 211.176 217.616Z" fill="black"/>
<path d="M184.005 216.466C188.426 216.466 192.01 213.547 192.01 209.947C192.01 206.347 188.426 203.429 184.005 203.429C179.584 203.429 176 206.347 176 209.947C176 213.547 179.584 216.466 184.005 216.466Z" fill="black"/>
<path d="M176.417 207.888C176.417 207.888 178.998 200.212 179.758 199.995C180.518 199.779 181.897 204.371 181.897 204.371L176.417 207.888Z" fill="black"/>
<path d="M191.038 207.888C191.038 207.888 188.452 200.212 187.692 199.995C186.932 199.779 185.559 204.371 185.559 204.371L191.038 207.888Z" fill="black"/>
<path d="M182.157 210.582C182.157 210.582 183.579 210.54 183.579 210.582C183.579 210.812 183.089 211.399 182.868 211.399C182.537 211.399 182.157 210.582 182.157 210.582Z" fill="white"/>
<path d="M188.288 204.74C188.222 204.741 188.158 204.714 188.11 204.663C188.062 204.612 188.033 204.542 188.03 204.467C188.035 203.744 187.896 203.028 187.626 202.374C187.332 202.871 187.124 203.428 187.013 204.014C186.993 204.086 186.949 204.147 186.891 204.183C186.832 204.219 186.764 204.229 186.7 204.209C186.636 204.189 186.581 204.141 186.546 204.077C186.512 204.012 186.501 203.934 186.516 203.86C186.651 203.302 187.013 201.983 187.497 201.767C187.567 201.741 187.642 201.736 187.714 201.751C187.787 201.765 187.855 201.799 187.914 201.85C188.435 202.318 188.527 204.063 188.527 204.412C188.528 204.449 188.524 204.487 188.512 204.522C188.501 204.558 188.484 204.59 188.462 204.618C188.44 204.646 188.413 204.669 188.383 204.685C188.353 204.701 188.321 204.71 188.288 204.712V204.74Z" fill="white"/>
<path d="M179.156 204.914C179.121 204.914 179.087 204.905 179.055 204.889C179.023 204.873 178.995 204.85 178.971 204.822C178.947 204.793 178.928 204.76 178.916 204.723C178.903 204.686 178.897 204.647 178.898 204.607C178.898 204.265 179.008 202.514 179.511 202.053C179.568 202.001 179.635 201.966 179.707 201.951C179.779 201.937 179.853 201.943 179.922 201.969C180.406 202.158 180.768 203.477 180.902 204.063C180.92 204.137 180.912 204.216 180.878 204.283C180.845 204.35 180.79 204.399 180.725 204.419C180.66 204.439 180.59 204.429 180.532 204.391C180.473 204.353 180.43 204.291 180.412 204.217C180.297 203.632 180.089 203.076 179.799 202.576C179.525 203.23 179.384 203.946 179.388 204.67C179.38 204.735 179.352 204.795 179.31 204.839C179.268 204.884 179.213 204.91 179.156 204.914Z" fill="white"/>
<path d="M180.208 209.339C180.14 209.339 180.074 209.308 180.026 209.253C179.978 209.198 179.951 209.124 179.951 209.046V207.287C179.951 207.209 179.978 207.135 180.026 207.08C180.074 207.025 180.14 206.994 180.208 206.994C180.276 206.994 180.342 207.025 180.39 207.08C180.438 207.135 180.465 207.209 180.465 207.287V209.053C180.464 209.129 180.436 209.202 180.388 209.256C180.34 209.309 180.275 209.339 180.208 209.339Z" fill="white"/>
<path d="M186.301 209.339C186.267 209.339 186.234 209.331 186.202 209.317C186.171 209.302 186.143 209.28 186.119 209.253C186.095 209.226 186.076 209.194 186.063 209.158C186.05 209.122 186.044 209.084 186.044 209.046V207.287C186.044 207.249 186.05 207.211 186.063 207.175C186.076 207.139 186.095 207.107 186.119 207.08C186.143 207.053 186.171 207.031 186.202 207.016C186.234 207.002 186.267 206.994 186.301 206.994C186.335 206.994 186.368 207.002 186.399 207.016C186.43 207.031 186.457 207.053 186.481 207.08C186.504 207.108 186.523 207.14 186.535 207.175C186.547 207.211 186.553 207.249 186.552 207.287V209.053C186.552 209.09 186.546 209.128 186.533 209.162C186.521 209.197 186.502 209.229 186.479 209.255C186.455 209.282 186.428 209.303 186.397 209.317C186.367 209.332 186.334 209.339 186.301 209.339Z" fill="white"/>
<path d="M216.275 214.231C216.275 214.231 216.594 219.66 215.086 223.087L213.578 226.514C213.578 226.514 216.03 231.574 215.877 233.29C215.724 235.007 212.549 241.784 211.041 241.665C209.533 241.547 212.31 235.161 212.31 235.161L210.091 233.716C210.091 233.716 204.697 240.039 202.631 239.495C200.566 238.95 206.199 232.362 206.199 232.362L204.041 228.594L193.572 227.945C193.586 229.537 193.458 231.127 193.192 232.69L192.794 234.4C192.794 234.4 196.367 238.015 195.098 239.013C193.83 240.011 189.465 235.126 189.306 233.863C189.222 232.508 189.222 231.149 189.306 229.794C189.306 229.794 186.021 239.46 183.422 241.177C180.823 242.894 179.744 241.449 179.971 240.004C180.198 238.56 181.46 239.306 181.46 239.306L183.422 228.838C183.422 228.838 180.179 225.132 179.947 221.789C179.818 219.765 180.247 217.745 181.172 216.01C181.172 216.01 185.255 210.574 197.391 211.041C209.527 211.509 216.275 214.231 216.275 214.231Z" fill="black"/>
<path d="M101.335 71.9262C101.335 71.9262 100.357 68.4664 101.05 67.5817C101.744 66.697 105.978 63.1605 105.57 64.3138C105.332 64.9962 104.989 65.6423 104.554 66.2319C104.554 66.2319 106.84 67.2305 105.368 68.7302C103.896 70.2299 103.412 70.5751 103.336 71.9214C103.26 73.2677 102.318 73.7328 101.335 71.9262Z" fill="url(#paint11_linear_6509_827)"/>
<path d="M104.685 65.0895C104.529 65.3823 104.351 65.6648 104.152 65.9349L103.779 66.4391L104.353 66.6895L104.353 66.6896L104.353 66.6896L104.354 66.6899L104.355 66.6904L104.367 66.6962C104.379 66.7018 104.398 66.711 104.423 66.7237C104.473 66.749 104.545 66.7874 104.627 66.8378C104.796 66.9413 104.991 67.083 105.139 67.2503C105.288 67.4185 105.358 67.5751 105.362 67.7191C105.365 67.8519 105.314 68.0718 105.011 68.3799C104.872 68.5219 104.739 68.6555 104.613 68.7823C104.099 69.3007 103.698 69.7041 103.421 70.0935C103.042 70.6261 102.879 71.1443 102.837 71.8931C102.821 72.1796 102.76 72.381 102.693 72.5002C102.661 72.5581 102.632 72.5877 102.615 72.6011C102.607 72.6076 102.602 72.6103 102.6 72.6112C102.598 72.6121 102.597 72.6123 102.597 72.6124C102.596 72.6125 102.593 72.613 102.586 72.6122C102.579 72.6114 102.566 72.6092 102.548 72.6026C102.51 72.5892 102.45 72.5585 102.371 72.4925C102.216 72.3634 102.019 72.1271 101.801 71.7366C101.795 71.7139 101.787 71.6842 101.778 71.6484C101.753 71.5553 101.718 71.4204 101.679 71.2555C101.6 70.925 101.502 70.4776 101.426 70.0059C101.349 69.5308 101.297 69.0476 101.302 68.6403C101.308 68.2006 101.381 67.9701 101.444 67.8901C101.587 67.708 101.95 67.3479 102.44 66.9078C102.92 66.4772 103.493 65.9958 104.03 65.5783C104.263 65.3972 104.484 65.2319 104.685 65.0895Z" stroke="black" stroke-opacity="0.3"/>
<path d="M60.656 221.27C60.656 221.27 60.1391 224.267 60.2052 225.327C60.2712 226.387 72.789 226.937 72.916 226.139C73.043 225.34 70.846 224.073 69.3005 223.621C67.755 223.169 63.2327 221.979 63.2327 221.979L60.656 221.27Z" fill="url(#paint12_linear_6509_827)"/>
<path d="M63.6948 218.288L63.2961 222.004C63.2961 222.004 61.842 222.911 60.5606 222.211L59.9257 218.162L63.6948 218.288Z" fill="url(#paint13_linear_6509_827)"/>
<path d="M38.3202 226.12C38.3202 226.12 37.8021 229.118 37.8681 230.178C37.9342 231.239 50.4533 231.787 50.5803 230.99C50.7072 230.193 48.5102 228.923 46.9647 228.473C45.4192 228.022 40.8957 226.83 40.8957 226.83L38.3202 226.12Z" fill="url(#paint14_linear_6509_827)"/>
<path d="M41.3592 223.138L40.9592 226.854C40.9592 226.854 39.5051 227.761 38.2237 227.061L37.5887 223.011L41.3592 223.138Z" fill="url(#paint15_linear_6509_827)"/>
<path d="M61.423 121.153L65.7649 129.461C66.9282 145.266 67.5073 162.451 67.1352 180.83C66.8596 194.503 66.0849 207.456 64.9763 219.615L59.0901 219.361C56.2517 214.043 52.9004 205.991 52.5918 196.051C52.2705 185.682 55.6015 184.303 55.3856 174.378C55.1126 161.51 49.3966 158.074 46.3513 142.598C45.1867 136.68 44.4019 128.949 45.3353 119.568L61.423 121.153Z" fill="url(#paint16_linear_6509_827)"/>
<path style="mix-blend-mode:multiply" opacity="0.3" d="M45.338 119.568L54.0257 120.424C59.2324 128.987 60.6929 137.9 59.7785 141.842C58.4844 147.42 55.0607 149.206 55.2486 154.806C55.4353 160.347 58.8934 161.784 61.0904 168.315C62.6079 172.837 62.2079 176.995 61.3444 185.125C59.602 201.502 55.4125 206.51 58.9188 211.885C59.9157 213.41 61.7126 215.227 65.2329 216.614C65.1466 217.619 65.0615 218.626 64.97 219.619L59.0839 219.365C56.2519 214.043 52.9005 205.991 52.5919 196.051C52.2706 185.682 55.6004 184.303 55.3858 174.378C55.1127 161.51 49.3967 158.074 46.3514 142.6C45.1907 136.68 44.4059 128.949 45.338 119.568Z" fill="url(#paint17_linear_6509_827)"/>
<path d="M53.6382 126.139C50.9218 140.121 48.5228 155.086 46.6535 170.956C44.393 190.119 43.1865 208.185 42.7167 224.959L36.2565 225.131C27.7707 209.284 27.2526 198.541 28.4755 191.544C28.9479 188.849 30.228 183.564 30.5201 175.665C30.7246 170.159 30.3525 165.968 29.8851 160.93C28.8692 149.886 27.6285 147.475 27.4507 139.027C27.2843 131.098 27.25 127.087 29.6477 124.744C35.9593 118.575 52.3911 125.592 53.6382 126.139Z" fill="url(#paint18_linear_6509_827)"/>
<path d="M100.213 71.3927L104.51 71.1098C107.888 83.9982 105.465 96.4994 97.8398 101.097C85.9252 108.281 63.785 94.7431 58.9795 80.011C56.874 73.5374 57.354 64.2083 61.5626 62.3885C62.7309 61.885 64.5444 61.8059 68.4724 63.8882C80.2028 70.1052 80.5101 81.8559 86.4738 82.8509C89.1318 83.2993 93.414 81.7037 100.213 71.3927Z" fill="url(#paint19_linear_6509_827)"/>
<path d="M67.4134 132.296C69.4758 129.065 66.8851 125.942 66.2946 119.828C65.6266 112.888 68.4535 111.733 71.2588 100.232C73.1218 92.5841 74.9099 85.2474 72.7751 76.6459C71.7528 72.5268 70.0181 65.5402 63.8855 62.1655C60.7246 60.4236 56.4093 60.5975 47.9071 61.0183C37.3919 61.5373 32.1344 61.7963 28.2141 63.7455C27.6401 64.0309 15.7115 70.1556 14.8911 80.138C14.0555 90.2991 25.777 91.6646 27.3365 105.215C28.0388 111.297 26.7879 120.653 25.9764 126.721C25.198 132.548 24.662 134.034 25.8799 135.802C28.8148 140.054 37.8021 138.842 55.7769 136.42C62.8391 135.465 65.873 134.708 67.4134 132.296Z" fill="url(#paint20_linear_6509_827)"/>
<path d="M40.0637 103.033C39.3017 105.67 36.5701 107.646 34.6677 114.07C34.2562 115.457 31.3303 125.339 35.1261 127.764C37.3181 129.168 39.2865 126.508 44.6075 126.162C53.8273 125.562 58.2201 132.875 64.2421 130.877C65.2873 130.53 66.6665 129.79 68.0443 128.093C68.3186 129.623 68.2717 130.952 67.4094 132.297C65.8689 134.709 62.8376 135.467 55.783 136.417C37.8083 138.84 28.8209 140.052 25.886 135.8C24.6682 134.037 25.2041 132.545 25.9825 126.719C26.794 120.651 28.0449 111.295 27.3427 105.212C25.7794 91.6659 14.0578 90.2969 14.8972 80.1358C15.1207 77.4205 16.1786 75.0013 17.5946 72.8962C32.4643 78.5773 42.4524 94.7325 40.0637 103.033Z" fill="url(#paint21_linear_6509_827)"/>
<path d="M21.2812 123.018L24.2567 124.816C24.7914 124.234 26.0283 123.059 27.9586 122.659C30.134 122.207 32.632 122.854 32.6904 123.51C32.7361 124.035 31.216 124.565 30.9811 124.646C29.0825 125.308 27.6792 124.759 26.9071 125.485C26.6353 125.74 26.2975 126.213 25.5191 126.653C25.3489 126.751 25.1715 126.837 24.9882 126.911C23.7183 127.376 21.5479 125.294 21.3613 125.113L21.2812 123.018Z" fill="url(#paint22_linear_6509_827)"/>
<path d="M30.0719 86.1839C32.2232 81.3179 33.7153 73.8673 30.3157 62.8071C7.91643 71.1388 -3.5067 90.8904 0.953337 106.548C4.63617 119.454 18.0074 125.742 20.9918 127.064C21.6869 125.572 22.3811 124.081 23.0745 122.589C19.6164 118.953 15.7202 113.579 16.2714 107.445C17.0346 98.9368 25.7147 96.0345 30.0719 86.1839Z" fill="url(#paint23_linear_6509_827)"/>
<path d="M47.3621 51.0047C47.3621 51.0047 47.1856 54.703 45.9652 57.4783C44.8667 59.9814 39.0846 61.5542 37.9125 62.1141C36.7403 62.6739 40.1082 64.3055 43.4901 64.6316C46.8719 64.9576 56.5298 64.2276 58.2697 63.018C60.0095 61.8084 56.8727 61.8983 54.4598 61.0615C52.0469 60.2247 50.65 55.77 51.0767 53.7488C51.5034 51.7276 47.3621 51.0047 47.3621 51.0047Z" fill="url(#paint24_linear_6509_827)"/>
<path d="M52.7113 49.6632C54.4651 48.0352 54.7102 47.8458 54.9019 47.2835C55.6639 45.025 53.8136 41.9332 51.3804 41.1696C51.2534 41.13 49.6215 40.6373 48.9992 41.3051C48.4697 41.8733 49.2532 42.6573 48.8786 43.7506C48.5319 44.7744 47.5909 44.8511 45.8485 46.1938C44.4122 47.3003 43.5207 47.992 43.315 48.9511C42.8908 50.9447 45.4472 53.8338 47.7102 53.7559C48.5243 53.7331 48.7452 53.3411 52.7113 49.6632Z" fill="url(#paint25_linear_6509_827)"/>
<path d="M47.9324 54.07C47.9324 54.07 49.7967 56.0636 52.6388 55.4043C55.1787 54.8145 54.5336 49.3023 52.6718 48.4212C52.0508 48.1287 50.9218 48.1527 50.0735 48.5411C49.5655 48.7689 49.4322 49.0063 48.6055 49.3635C47.8435 49.6932 47.6009 49.6476 47.3965 49.8802C47.1425 50.1703 47.0295 50.7949 47.8333 52.3042C47.2542 51.917 46.6307 51.8354 46.2485 52.092C46.1189 52.1887 46.0207 52.3179 45.9653 52.4648C45.7227 53.1445 46.4732 53.8386 47.9324 54.07Z" fill="url(#paint26_linear_6509_827)"/>
<defs>
<linearGradient id="paint0_linear_6509_827" x1="172.225" y1="168.095" x2="234.845" y2="-4.85681" gradientUnits="userSpaceOnUse">
<stop stop-color="#E38DDD"/>
<stop offset="1" stop-color="#9571F6"/>
</linearGradient>
<linearGradient id="paint1_linear_6509_827" x1="124.002" y1="151.11" x2="250.355" y2="151.11" gradientUnits="userSpaceOnUse">
<stop stop-color="#FF9085"/>
<stop offset="1" stop-color="#FB6FBB"/>
</linearGradient>
<linearGradient id="paint2_linear_6509_827" x1="156.429" y1="121.983" x2="193.705" y2="126.141" gradientUnits="userSpaceOnUse">
<stop stop-color="#444B8C"/>
<stop offset="1" stop-color="#26264F"/>
</linearGradient>
<linearGradient id="paint3_linear_6509_827" x1="123.567" y1="30.0503" x2="212.061" y2="338.138" gradientUnits="userSpaceOnUse">
<stop stop-color="#444B8C"/>
<stop offset="1" stop-color="#26264F"/>
</linearGradient>
<linearGradient id="paint4_linear_6509_827" x1="158.125" y1="22.4881" x2="262.316" y2="311.055" gradientUnits="userSpaceOnUse">
<stop stop-color="#FFC444"/>
<stop offset="1" stop-color="#F36F56"/>
</linearGradient>
<linearGradient id="paint5_linear_6509_827" x1="79.5901" y1="124.784" x2="199.372" y2="124.784" gradientUnits="userSpaceOnUse">
<stop stop-color="#311944"/>
<stop offset="1" stop-color="#893976"/>
</linearGradient>
<linearGradient id="paint6_linear_6509_827" x1="152.414" y1="355.161" x2="138.754" y2="113.204" gradientUnits="userSpaceOnUse">
<stop stop-color="#F36F56"/>
<stop offset="1" stop-color="#FFC444"/>
</linearGradient>
<linearGradient id="paint7_linear_6509_827" x1="95.7481" y1="112.046" x2="181.93" y2="112.046" gradientUnits="userSpaceOnUse">
<stop stop-color="#F36F56"/>
<stop offset="1" stop-color="#FFC444"/>
</linearGradient>
<linearGradient id="paint8_linear_6509_827" x1="92.7015" y1="134.156" x2="178.817" y2="134.156" gradientUnits="userSpaceOnUse">
<stop stop-color="#F36F56"/>
<stop offset="1" stop-color="#FFC444"/>
</linearGradient>
<linearGradient id="paint9_linear_6509_827" x1="135.029" y1="142.319" x2="116.602" y2="261.823" gradientUnits="userSpaceOnUse">
<stop stop-color="#F36F56"/>
<stop offset="1" stop-color="#FFC444"/>
</linearGradient>
<linearGradient id="paint10_linear_6509_827" x1="141.362" y1="18.0273" x2="145.293" y2="137.749" gradientUnits="userSpaceOnUse">
<stop stop-color="#F36F56"/>
<stop offset="1" stop-color="#FFC444"/>
</linearGradient>
<linearGradient id="paint11_linear_6509_827" x1="108.143" y1="64.3521" x2="92.361" y2="81.3694" gradientUnits="userSpaceOnUse">
<stop stop-color="#FFC444"/>
<stop offset="1" stop-color="#F36F56"/>
</linearGradient>
<linearGradient id="paint12_linear_6509_827" x1="66.5917" y1="217.349" x2="66.7185" y2="181.616" gradientUnits="userSpaceOnUse">
<stop stop-color="#AA80F9"/>
<stop offset="1" stop-color="#6165D7"/>
</linearGradient>
<linearGradient id="paint13_linear_6509_827" x1="64.4135" y1="229.924" x2="62.8037" y2="211.384" gradientUnits="userSpaceOnUse">
<stop stop-color="#FFC444"/>
<stop offset="1" stop-color="#F36F56"/>
</linearGradient>
<linearGradient id="paint14_linear_6509_827" x1="44.275" y1="217.27" x2="44.4017" y2="181.537" gradientUnits="userSpaceOnUse">
<stop stop-color="#AA80F9"/>
<stop offset="1" stop-color="#6165D7"/>
</linearGradient>
<linearGradient id="paint15_linear_6509_827" x1="41.7236" y1="231.894" x2="40.1137" y2="213.353" gradientUnits="userSpaceOnUse">
<stop stop-color="#FFC444"/>
<stop offset="1" stop-color="#F36F56"/>
</linearGradient>
<linearGradient id="paint16_linear_6509_827" x1="62.1583" y1="135.795" x2="49.7439" y2="203.026" gradientUnits="userSpaceOnUse">
<stop stop-color="#311944"/>
<stop offset="1" stop-color="#893976"/>
</linearGradient>
<linearGradient id="paint17_linear_6509_827" x1="70.6843" y1="169.439" x2="49.7884" y2="171.209" gradientUnits="userSpaceOnUse">
<stop stop-color="#311944"/>
<stop offset="1" stop-color="#893976"/>
</linearGradient>
<linearGradient id="paint18_linear_6509_827" x1="59.1166" y1="173.151" x2="27.3952" y2="175.839" gradientUnits="userSpaceOnUse">
<stop stop-color="#311944"/>
<stop offset="1" stop-color="#893976"/>
</linearGradient>
<linearGradient id="paint19_linear_6509_827" x1="82.5471" y1="73.6441" x2="61.6311" y2="215.946" gradientUnits="userSpaceOnUse">
<stop stop-color="#AA80F9"/>
<stop offset="1" stop-color="#6165D7"/>
</linearGradient>
<linearGradient id="paint20_linear_6509_827" x1="34.2297" y1="230.53" x2="24.0803" y2="374.32" gradientUnits="userSpaceOnUse">
<stop stop-color="#AA80F9"/>
<stop offset="1" stop-color="#6165D7"/>
</linearGradient>
<linearGradient id="paint21_linear_6509_827" x1="-4.38414" y1="181.525" x2="53.0929" y2="77.2697" gradientUnits="userSpaceOnUse">
<stop stop-color="#AA80F9"/>
<stop offset="1" stop-color="#6165D7"/>
</linearGradient>
<linearGradient id="paint22_linear_6509_827" x1="16.4097" y1="110.726" x2="28.6262" y2="128.208" gradientUnits="userSpaceOnUse">
<stop stop-color="#FFC444"/>
<stop offset="1" stop-color="#F36F56"/>
</linearGradient>
<linearGradient id="paint23_linear_6509_827" x1="6.47515" y1="228.571" x2="-3.67422" y2="372.363" gradientUnits="userSpaceOnUse">
<stop stop-color="#AA80F9"/>
<stop offset="1" stop-color="#6165D7"/>
</linearGradient>
<linearGradient id="paint24_linear_6509_827" x1="56.2891" y1="67.0293" x2="44.4076" y2="51.4459" gradientUnits="userSpaceOnUse">
<stop stop-color="#FFC444"/>
<stop offset="1" stop-color="#F36F56"/>
</linearGradient>
<linearGradient id="paint25_linear_6509_827" x1="45.7322" y1="63.928" x2="51.8036" y2="42.7819" gradientUnits="userSpaceOnUse">
<stop stop-color="#444B8C"/>
<stop offset="1" stop-color="#3E4177"/>
</linearGradient>
<linearGradient id="paint26_linear_6509_827" x1="63.7779" y1="54.2168" x2="45.1643" y2="45.4961" gradientUnits="userSpaceOnUse">
<stop stop-color="#FFC444"/>
<stop offset="1" stop-color="#F36F56"/>
</linearGradient>
</defs>
</svg>
