<svg width="100" height="100" viewBox="0 0 100 100" fill="none" xmlns="http://www.w3.org/2000/svg">
<path d="M50 99.5431C77.6142 99.5431 100 77.9984 100 51.4217C100 24.845 77.6142 3.30035 50 3.30035C22.3858 3.30035 0 24.845 0 51.4217C0 77.9984 22.3858 99.5431 50 99.5431Z" fill="#FCE8E3"/>
<path d="M64 43.4343H37V74.7475H64V43.4343Z" fill="#E2988F"/>
<path d="M93 76.143C78.9595 69.9178 63.654 67.6768 63.654 67.6768C56.6338 74.9869 43.5555 75.0848 37.346 67.6768C37.346 67.6768 22.0405 69.8912 8 76.143C12.4365 83.4271 18.677 89.4483 26.1206 93.6267C33.5642 97.8051 41.9602 100 50.5 100C59.0398 100 67.4358 97.8051 74.8794 93.6267C82.323 89.4483 88.5635 83.4271 93 76.143Z" fill="white"/>
<path d="M66 67.6768V97.9798C77.2586 94.0725 86.8126 86.2785 93 75.9538C84.329 72.1886 75.2736 69.4126 66 67.6768Z" fill="#F4BA5D"/>
<path d="M34 67.6768C25.0688 69.4265 16.349 72.2126 8 75.984C13.9633 86.288 23.1614 94.0695 34 97.9798V67.6768Z" fill="#F4BA5D"/>
<path d="M50.1666 76.7677H49.9143C43.0385 76.6921 37.2441 73.5202 34 68.0638L34.5767 67.6862C37.6857 72.9349 43.2818 75.9841 49.8962 76.0597C56.808 76.1257 63.1701 72.9255 66.4323 67.6768L67 68.0638C63.6838 73.4542 57.2676 76.7677 50.1666 76.7677Z" fill="#EABFB9"/>
<path d="M75.5876 28.4885C74.1499 25.0756 71.1774 26.7383 71.1774 26.7383C72.8797 11.2401 64.9327 1.01007 50.0087 1.01007C35.0848 1.01007 27.173 11.2401 28.8401 26.7383C28.8401 26.7383 25.9029 25.0668 24.4299 28.4885C22.9569 31.9102 25.6118 39.8649 27.2348 42.429C27.6192 43.1245 28.2457 43.6573 28.9973 43.9279C29.7489 44.1985 30.574 44.1883 31.3186 43.8991C31.3186 43.8991 31.9183 49.7449 32.6681 51.7226C33.4178 53.7004 41.9205 62.8277 44.4167 64.2192C47.689 66.1357 52.5137 66.1357 55.4597 64.2192C57.9558 62.8277 66.4497 53.7179 67.1995 51.7226C67.9492 49.7274 68.5402 43.7941 68.5402 43.7941C69.2707 44.1162 70.0965 44.1547 70.8543 43.9019C71.6121 43.6492 72.2467 43.1235 72.6328 42.429C74.3792 39.9086 77.0253 31.9102 75.5876 28.4885Z" fill="#E2988F"/>
<path d="M50.6391 66.6641C48.5672 66.6844 46.5254 66.2324 44.7169 65.3529C43.1735 64.5724 39.6381 61.5206 37 58.9761L37.5025 58.5859C40.1944 61.1694 43.6401 64.1509 45.0489 64.8299C48.2792 66.4768 53.0528 66.4846 55.9332 64.8299C57.3689 64.1275 60.8235 61.1459 63.5065 58.5859L64 58.9761C61.3709 61.5206 57.8265 64.5958 56.2832 65.3529C54.5845 66.2501 52.6258 66.7051 50.6391 66.6641Z" fill="#C46966"/>
<path d="M31.4935 40.6108L30.8281 40.6843L31.2461 44.3532L31.9114 44.2797L31.4935 40.6108Z" fill="#C46966"/>
<path d="M69.275 40.6199L68.8955 44.1868L69.5614 44.2554L69.9409 40.6886L69.275 40.6199Z" fill="#C46966"/>
<path d="M26.7983 36.3636C26.5888 35.8127 24.861 30.9024 27.2564 29.5975C27.5179 29.4548 27.8206 29.3587 28.1408 29.3168C28.461 29.2749 28.79 29.2882 29.102 29.3558C29.5396 29.5074 29.9325 29.7211 30.2581 29.9848C30.5838 30.2485 30.8359 30.557 31 30.8927L30.0837 31.1537C29.8502 30.6757 29.3834 30.2793 28.7748 30.0421C28.606 30.0108 28.4298 30.0084 28.2596 30.0353C28.0894 30.0621 27.9298 30.1173 27.793 30.1968C26.4056 30.97 27.0077 34.2951 27.7145 36.209L26.7983 36.3636Z" fill="#C46966"/>
<path d="M74.2185 36.3636L73.2651 36.1714C73.9703 34.2489 74.5711 30.9614 73.1737 30.1732C73.0388 30.0994 72.8824 30.0497 72.717 30.028C72.5515 30.0063 72.3815 30.0132 72.2203 30.0482C71.4367 30.2309 70.9142 31.1344 70.9142 31.144L70 30.8845C70.1618 30.5499 70.4126 30.2424 70.7378 29.98C71.063 29.7176 71.456 29.5055 71.8938 29.3561C72.2001 29.2892 72.5232 29.2752 72.8381 29.3152C73.153 29.3552 73.4511 29.4482 73.7091 29.5868C76.1514 30.9326 74.4144 35.8157 74.2185 36.3636Z" fill="#C46966"/>
<path d="M31.3541 35.3535C35.6836 35.3535 32.4105 20.6077 35.8135 17.0376C37.5453 15.2115 62.5875 15.2937 64.25 17.0376C67.653 20.6077 64.3712 35.3718 68.7094 35.3535C68.4064 31.9387 68.3977 28.1952 70.779 26.8438C72.4415 10.6736 64.6483 0 49.9971 0C35.3459 0 27.5787 10.6736 29.2153 26.8438C31.2156 28.1678 31.6572 31.7743 31.3541 35.3535Z" fill="#4C224B"/>
<path d="M50.5 39.3947C50.5 39.3947 39.4559 39.1893 39 45.4545H62C61.5441 39.1893 50.5 39.3947 50.5 39.3947Z" fill="#4C224B"/>
<path d="M50 99.5431C77.6142 99.5431 100 77.9984 100 51.4217C100 24.845 77.6142 3.30029 50 3.30029C22.3858 3.30029 0 24.845 0 51.4217C0 77.9984 22.3858 99.5431 50 99.5431Z" fill="#FCE8E3"/>
<path d="M64 43.4343H37V74.7475H64V43.4343Z" fill="#E2988F"/>
<path d="M93 76.143C78.9595 69.9178 63.654 67.6768 63.654 67.6768C56.6338 74.9869 43.5555 75.0848 37.346 67.6768C37.346 67.6768 22.0405 69.8912 8 76.143C12.4365 83.4271 18.677 89.4483 26.1206 93.6267C33.5642 97.8051 41.9602 100 50.5 100C59.0398 100 67.4358 97.8051 74.8794 93.6267C82.323 89.4483 88.5635 83.4271 93 76.143Z" fill="white"/>
<path d="M66 67.6768V97.9798C77.2586 94.0725 86.8126 86.2785 93 75.9538C84.329 72.1886 75.2736 69.4126 66 67.6768Z" fill="#F4BA5D"/>
<path d="M34 67.6768C25.0688 69.4265 16.349 72.2126 8 75.984C13.9633 86.288 23.1614 94.0695 34 97.9798V67.6768Z" fill="#F4BA5D"/>
<path d="M50.1666 76.7677H49.9143C43.0385 76.6921 37.2441 73.5202 34 68.0638L34.5767 67.6862C37.6857 72.9349 43.2818 75.9841 49.8962 76.0597C56.808 76.1257 63.1701 72.9255 66.4323 67.6768L67 68.0638C63.6838 73.4542 57.2676 76.7677 50.1666 76.7677Z" fill="#EABFB9"/>
<path d="M75.5876 28.4885C74.1499 25.0756 71.1774 26.7383 71.1774 26.7383C72.8797 11.2401 64.9327 1.01013 50.0087 1.01013C35.0848 1.01013 27.173 11.2401 28.8401 26.7383C28.8401 26.7383 25.9029 25.0669 24.4299 28.4885C22.9569 31.9102 25.6118 39.8649 27.2348 42.429C27.6192 43.1245 28.2457 43.6574 28.9973 43.928C29.7489 44.1985 30.574 44.1883 31.3186 43.8992C31.3186 43.8992 31.9183 49.7449 32.6681 51.7227C33.4178 53.7004 41.9205 62.8278 44.4167 64.2192C47.689 66.1357 52.5137 66.1357 55.4597 64.2192C57.9558 62.8278 66.4497 53.7179 67.1995 51.7227C67.9492 49.7274 68.5402 43.7942 68.5402 43.7942C69.2707 44.1163 70.0965 44.1548 70.8543 43.902C71.6121 43.6492 72.2467 43.1236 72.6328 42.429C74.3792 39.9087 77.0253 31.9102 75.5876 28.4885Z" fill="#E2988F"/>
<path d="M50.6391 66.6641C48.5672 66.6844 46.5254 66.2323 44.7169 65.3528C43.1735 64.5723 39.6381 61.5205 37 58.9761L37.5025 58.5858C40.1944 61.1693 43.6401 64.1508 45.0489 64.8299C48.2792 66.4768 53.0528 66.4846 55.9332 64.8299C57.3689 64.1274 60.8235 61.1459 63.5065 58.5858L64 58.9761C61.3709 61.5205 57.8265 64.5957 56.2832 65.3528C54.5845 66.25 52.6258 66.705 50.6391 66.6641Z" fill="#C46966"/>
<path d="M31.4935 40.6108L30.8281 40.6843L31.2461 44.3532L31.9114 44.2797L31.4935 40.6108Z" fill="#C46966"/>
<path d="M69.275 40.6199L68.8955 44.1868L69.5614 44.2554L69.9409 40.6886L69.275 40.6199Z" fill="#C46966"/>
<path d="M26.7983 36.3637C26.5888 35.8127 24.861 30.9025 27.2564 29.5976C27.5179 29.4549 27.8206 29.3588 28.1408 29.3169C28.461 29.2749 28.79 29.2883 29.102 29.3559C29.5396 29.5074 29.9325 29.7212 30.2581 29.9849C30.5838 30.2486 30.8359 30.5571 31 30.8928L30.0837 31.1538C29.8502 30.6758 29.3834 30.2793 28.7748 30.0422C28.606 30.0109 28.4298 30.0085 28.2596 30.0353C28.0894 30.0621 27.9298 30.1174 27.793 30.1968C26.4056 30.9701 27.0077 34.2952 27.7145 36.209L26.7983 36.3637Z" fill="#C46966"/>
<path d="M74.2185 36.3637L73.2651 36.1714C73.9703 34.2489 74.5711 30.9615 73.1737 30.1732C73.0388 30.0994 72.8824 30.0497 72.717 30.0281C72.5515 30.0064 72.3815 30.0133 72.2203 30.0483C71.4367 30.2309 70.9142 31.1345 70.9142 31.1441L70 30.8846C70.1618 30.55 70.4126 30.2425 70.7378 29.98C71.063 29.7176 71.456 29.5055 71.8938 29.3562C72.2001 29.2892 72.5232 29.2752 72.8381 29.3153C73.153 29.3553 73.4511 29.4482 73.7091 29.5869C76.1514 30.9326 74.4144 35.8158 74.2185 36.3637Z" fill="#C46966"/>
<path d="M31.3541 35.3535C35.6836 35.3535 32.4105 20.6077 35.8135 17.0376C37.5453 15.2115 62.5875 15.2937 64.25 17.0376C67.653 20.6077 64.3712 35.3718 68.7094 35.3535C68.4064 31.9387 68.3977 28.1952 70.779 26.8438C72.4415 10.6736 64.6483 0 49.9971 0C35.3459 0 27.5787 10.6736 29.2153 26.8438C31.2156 28.1678 31.6572 31.7743 31.3541 35.3535Z" fill="#4C224B"/>
<path d="M50.5 39.3947C50.5 39.3947 39.4559 39.1893 39 45.4545H62C61.5441 39.1893 50.5 39.3947 50.5 39.3947Z" fill="#4C224B"/>
</svg>
