<svg width="28" height="28" viewBox="0 0 28 28" fill="none" xmlns="http://www.w3.org/2000/svg">
<path d="M20.51 11.9168C17.318 5.047 15.6576 2.4374 10.4426 2.5466C8.58477 2.5844 9.02997 1.1998 7.61317 1.7248C6.19917 2.2498 7.41297 3.0184 5.96537 4.207C1.90257 7.5432 2.27636 10.6288 4.16076 17.983C4.95456 21.0812 2.24696 21.2324 3.31796 24.234C4.10056 26.4236 9.86857 27.3406 15.953 25.0838C22.0388 22.8256 25.8734 18.3442 25.0908 16.1546C24.0198 13.1516 21.8554 14.8092 20.51 11.9168ZM15.2936 23.233C9.85876 25.249 5.39276 24.0646 5.20376 23.5368C4.87896 22.6268 6.95796 19.5944 13.1712 17.2886C19.3844 14.9828 22.8522 15.8382 23.2148 16.8532C23.429 17.4538 20.7298 21.2156 15.2936 23.233ZM13.5464 18.3414C10.7058 19.3956 8.73177 20.601 7.45217 21.686C8.35237 22.5036 10.038 22.7024 11.7166 22.0794C13.8544 21.2884 15.169 19.467 14.6496 18.0138L14.6272 17.9634C14.2758 18.0782 13.916 18.2028 13.5464 18.3414Z" fill="#9F7EE7"/>
</svg>
