<svg width="22" height="22" viewBox="0 0 22 22" fill="none" xmlns="http://www.w3.org/2000/svg">
<defs>
<linearGradient id="paint0_linear_2861_1245" x1="7.79319" y1="7.51528" x2="18.3985" y2="18.5126" gradientUnits="userSpaceOnUse">
<stop stop-color="#FFF6C7"/>
<stop offset="1" stop-color="#FFF6C7" stop-opacity="0"/>
</linearGradient>
<clipPath id="clip0_2861_1245">
<rect width="22" height="22" fill="white"/>
</clipPath>
</defs>
<g clip-path="url(#clip0_2861_1245)">
<path d="M11 21.9998C4.93584 21.9998 0 17.2399 0 11.3919C0 5.54385 4.93584 0.783936 11 0.783936C17.0642 0.783936 22 5.54165 22 11.3919C22 17.2421 17.0664 21.9998 11 21.9998Z" fill="#F4A41A"/>
<path d="M11 21.2159C4.93584 21.2159 0 16.4582 0 10.6079C0 4.75771 4.93584 0 11 0C17.0642 0 22 4.75771 22 10.6079C22 16.4582 17.0664 21.2159 11 21.2159Z" fill="#FAC210"/>
<path d="M11 21.2159C4.93584 21.2159 0 16.4582 0 10.6079C0 4.75771 4.93584 0 11 0C17.0642 0 22 4.75771 22 10.6079C22 16.4582 17.0664 21.2159 11 21.2159Z" fill="#FAC210"/>
<path d="M18.5437 17.883C22.7101 13.8651 22.7101 7.35074 18.5437 3.33281C14.3773 -0.685119 7.62216 -0.685118 3.45573 3.33281C-0.710697 7.35074 -0.710697 13.8651 3.45573 17.883C7.62216 21.9009 14.3773 21.9009 18.5437 17.883Z" fill="#FFE55A"/>
<path d="M0.603101 10.87C0.603101 5.18718 5.37906 0.58145 11.2719 0.58145C14.1498 0.58145 16.7582 1.68057 18.6768 3.46691C16.7376 1.52638 14.0151 0.319336 11.0001 0.319336C5.10725 0.319336 0.331299 4.92506 0.331299 10.6079C0.331299 13.5154 1.58524 16.1409 3.59521 18.011C1.74284 16.1607 0.603101 13.6453 0.603101 10.87Z" fill="#FFF6C7"/>
<path d="M11.0001 19.6231C5.84501 19.6231 1.65149 15.5791 1.65149 10.6077C1.65149 5.63634 5.84501 1.59229 11.0001 1.59229C16.1552 1.59229 20.3487 5.63634 20.3487 10.6077C20.3487 15.5791 16.1552 19.6231 11.0001 19.6231Z" fill="#FAC210"/>
<path d="M17.3771 16.7575C13.8619 20.1474 8.14038 20.1474 4.62294 16.7575C1.10778 13.3676 1.10778 7.85 4.62294 4.45793C8.1381 1.06806 13.8597 1.06806 17.3771 4.45793C20.8923 7.8478 20.8923 13.3654 17.3771 16.7575Z" fill="#FFD601"/>
<path opacity="0.65" d="M17.3771 16.7576C13.8619 20.1474 8.14037 20.1474 4.62292 16.7576L17.3771 4.45801C20.8922 7.84788 20.8922 13.3655 17.3771 16.7576Z" fill="url(#paint0_linear_2861_1245)"/>
<path d="M14.3713 12.2597C15.036 12.9271 15.1296 13.4998 14.7139 14.3677C14.2183 15.4073 13.1014 16.0285 11.9342 15.947C11.635 15.8434 11.3175 15.7752 11.0412 15.632C10.8036 15.5064 10.5684 15.4337 10.3285 15.4073C10.0864 15.3809 9.83976 15.4051 9.5771 15.4712C9.23906 15.5593 8.90558 15.5813 8.58582 15.5483C7.34558 15.4161 6.34288 14.4293 6.26065 13.0945C6.22411 12.458 6.44337 11.9492 7.0121 11.6033C7.17199 11.5042 7.34558 11.4227 7.4849 11.2994C7.65849 11.1452 7.8572 10.9734 7.94628 10.7707C8.41451 9.70026 9.25048 9.18264 10.3811 9.09894C10.6506 9.07912 10.9155 9.08132 11.1736 9.10775C11.7081 9.16502 12.2175 9.33022 12.688 9.62978C13.2932 10.0152 13.6587 10.5659 13.766 11.273C13.8163 11.6033 13.9488 11.8743 14.1977 12.0923C14.2571 12.1452 14.3119 12.2069 14.3713 12.2619V12.2597ZM6.51418 10.6386C6.82481 10.6716 7.15143 10.5703 7.43465 10.3302C7.80467 10.013 7.98968 9.59674 8.06048 9.12758C8.11073 8.65621 8.03536 8.21348 7.75442 7.82802C7.542 7.53286 7.24736 7.36546 6.93673 7.33242C6.6261 7.29938 6.29719 7.4007 6.01626 7.64079C5.31277 8.23771 5.15974 9.41612 5.6942 10.143C5.91119 10.4359 6.20355 10.6033 6.51418 10.6364V10.6386ZM16.4818 8.76414C16.2671 8.46238 15.9724 8.29057 15.6572 8.25753C15.3443 8.22449 15.0131 8.32802 14.7276 8.57251C14.0333 9.16502 13.8825 10.3324 14.4056 11.0593C14.6226 11.3611 14.9195 11.5307 15.2347 11.5659C15.5545 11.5989 15.8902 11.491 16.178 11.2355C16.5366 10.9161 16.717 10.5086 16.7833 10.0439C16.829 9.58352 16.7559 9.1474 16.4841 8.76414H16.4818ZM9.54969 8.25533C9.85575 8.28837 10.1755 8.19145 10.4519 7.95797C10.8356 7.63859 11.0252 7.22009 11.0914 6.74211C11.1462 6.26194 11.0663 5.8126 10.7739 5.42493C10.5615 5.14079 10.276 4.98 9.97224 4.94916C9.66846 4.91612 9.34641 5.01304 9.06547 5.24432C8.34371 5.83903 8.18839 7.05269 8.74342 7.78176C8.95583 8.0637 9.24591 8.22449 9.54969 8.25753V8.25533ZM12.8844 8.60996C13.195 8.64299 13.5239 8.53947 13.8072 8.29498C14.1772 7.97559 14.3622 7.5637 14.4284 7.09013C14.4787 6.62758 14.4056 6.19366 14.1338 5.80819C13.9191 5.50423 13.6222 5.33242 13.307 5.29938C12.9963 5.26634 12.6674 5.36766 12.3819 5.61216C11.6807 6.21128 11.5345 7.3941 12.069 8.11656C12.2837 8.40951 12.5761 8.57471 12.8844 8.60775V8.60996Z" fill="#FFAF02"/>
</g>
</svg>
