<svg width="25" height="25" viewBox="0 0 25 25" fill="none" xmlns="http://www.w3.org/2000/svg">
<path d="M9.5918 5.34283C9.32659 5.34063 9.07137 5.44386 8.88228 5.62983C8.69319 5.8158 8.58572 6.06927 8.58351 6.33447C8.5813 6.59968 8.68454 6.8549 8.87051 7.04399C9.05647 7.23309 9.30994 7.34056 9.57515 7.34276C9.84036 7.34497 10.0956 7.24174 10.2847 7.05577C10.4738 6.8698 10.5812 6.61633 10.5834 6.35112C10.5856 6.08592 10.4824 5.8307 10.2964 5.6416C10.1105 5.45251 9.85701 5.34504 9.5918 5.34283ZM6.7619 5.31927C6.97337 4.73548 7.36071 4.23166 7.87054 3.87724C8.38037 3.52283 8.98758 3.33528 9.60847 3.34045C10.2294 3.34562 10.8334 3.54325 11.3372 3.9061C11.8411 4.26896 12.22 4.77916 12.4217 5.36639L19.5915 5.42608C19.8567 5.42829 20.1101 5.53576 20.2961 5.72485C20.4821 5.91394 20.5853 6.16917 20.5831 6.43437C20.5809 6.69958 20.4734 6.95305 20.2843 7.13902C20.0952 7.32499 19.84 7.42822 19.5748 7.42601L12.4051 7.36632C12.1936 7.95012 11.8062 8.45394 11.2964 8.80836C10.7866 9.16277 10.1794 9.35032 9.55848 9.34515C8.93759 9.33998 8.33358 9.14235 7.82973 8.77949C7.32587 8.41664 6.94697 7.90644 6.74525 7.31921L5.57529 7.30946C5.31008 7.30726 5.05661 7.19979 4.87064 7.0107C4.68468 6.8216 4.58144 6.56638 4.58365 6.30117C4.58586 6.03597 4.69333 5.7825 4.88242 5.59653C5.07151 5.41056 5.32673 5.30733 5.59194 5.30953L6.7619 5.31927ZM15.5416 11.3926C15.2764 11.3904 15.0212 11.4936 14.8321 11.6796C14.643 11.8655 14.5356 12.119 14.5334 12.3842C14.5311 12.6494 14.6344 12.9046 14.8203 13.0937C15.0063 13.2828 15.2598 13.3903 15.525 13.3925C15.7902 13.3947 16.0454 13.2915 16.2345 13.1055C16.4236 12.9195 16.5311 12.6661 16.5333 12.4009C16.5355 12.1357 16.4323 11.8804 16.2463 11.6913C16.0603 11.5023 15.8068 11.3948 15.5416 11.3926ZM12.7117 11.369C12.9232 10.7852 13.3106 10.2814 13.8204 9.92698C14.3302 9.57257 14.9374 9.38503 15.5583 9.39019C16.1792 9.39536 16.7832 9.59299 17.2871 9.95585C17.7909 10.3187 18.1698 10.8289 18.3715 11.4161L19.5415 11.4259C19.8067 11.4281 20.0602 11.5356 20.2461 11.7246C20.4321 11.9137 20.5354 12.169 20.5331 12.4342C20.5309 12.6994 20.4235 12.9528 20.2344 13.1388C20.0453 13.3248 19.7901 13.428 19.5249 13.4258L18.3549 13.4161C18.1434 13.9999 17.7561 14.5037 17.2463 14.8581C16.7364 15.2125 16.1292 15.4001 15.5083 15.3949C14.8874 15.3897 14.2834 15.1921 13.7796 14.8292C13.2757 14.4664 12.8968 13.9562 12.6951 13.3689L5.52534 13.3093C5.26013 13.307 5.00666 13.1996 4.82069 13.0105C4.63473 12.8214 4.53149 12.5662 4.5337 12.301C4.53591 12.0358 4.64338 11.7823 4.83247 11.5963C5.02156 11.4104 5.27678 11.3071 5.54199 11.3093L12.7117 11.369ZM9.4919 17.3424C9.22669 17.3402 8.97147 17.4434 8.78238 17.6294C8.59329 17.8154 8.48582 18.0689 8.48361 18.3341C8.4814 18.5993 8.58464 18.8545 8.77061 19.0436C8.95657 19.2327 9.21004 19.3401 9.47525 19.3423C9.74046 19.3446 9.99568 19.2413 10.1848 19.0554C10.3739 18.8694 10.4813 18.6159 10.4835 18.3507C10.4857 18.0855 10.3825 17.8303 10.1965 17.6412C10.0106 17.4521 9.75711 17.3446 9.4919 17.3424ZM6.662 17.3189C6.87347 16.7351 7.26081 16.2312 7.77064 15.8768C8.28047 15.5224 8.88768 15.3349 9.50857 15.34C10.1295 15.3452 10.7335 15.5428 11.2373 15.9057C11.7412 16.2685 12.1201 16.7787 12.3218 17.366L19.4916 17.4257C19.7568 17.4279 20.0102 17.5353 20.1962 17.7244C20.3822 17.9135 20.4854 18.1688 20.4832 18.434C20.481 18.6992 20.3735 18.9526 20.1844 19.1386C19.9953 19.3246 19.7401 19.4278 19.4749 19.4256L12.3052 19.3659C12.0937 19.9497 11.7063 20.4535 11.1965 20.8079C10.6867 21.1624 10.0795 21.3499 9.45858 21.3447C8.83769 21.3396 8.23369 21.1419 7.72983 20.7791C7.22597 20.4162 6.84707 19.906 6.64535 19.3188L5.47539 19.309C5.21018 19.3068 4.95671 19.1994 4.77074 19.0103C4.58478 18.8212 4.48154 18.566 4.48375 18.3008C4.48596 18.0356 4.59343 17.7821 4.78252 17.5961C4.97161 17.4101 5.22683 17.3069 5.49204 17.3091L6.662 17.3189Z" fill="#D99BFF"/>
</svg>
