<svg width="30" height="30" viewBox="0 0 30 30" fill="none" xmlns="http://www.w3.org/2000/svg">
<path d="M9.68755 20C10.1019 20 10.4994 19.8354 10.7924 19.5424C11.0854 19.2493 11.25 18.8519 11.25 18.4375C11.25 18.0231 11.0854 17.6257 10.7924 17.3326C10.4994 17.0396 10.1019 16.875 9.68755 16.875C9.27314 16.875 8.87572 17.0396 8.58269 17.3326C8.28967 17.6257 8.12505 18.0231 8.12505 18.4375C8.12505 18.8519 8.28967 19.2493 8.58269 19.5424C8.87572 19.8354 9.27314 20 9.68755 20ZM16.5625 18.4375C16.5625 18.8519 16.3979 19.2493 16.1049 19.5424C15.8119 19.8354 15.4144 20 15 20C14.5856 20 14.1882 19.8354 13.8952 19.5424C13.6022 19.2493 13.4375 18.8519 13.4375 18.4375C13.4375 18.0231 13.6022 17.6257 13.8952 17.3326C14.1882 17.0396 14.5856 16.875 15 16.875C15.4144 16.875 15.8119 17.0396 16.1049 17.3326C16.3979 17.6257 16.5625 18.0231 16.5625 18.4375ZM20.3125 20C20.7269 20 21.1244 19.8354 21.4174 19.5424C21.7104 19.2493 21.875 18.8519 21.875 18.4375C21.875 18.0231 21.7104 17.6257 21.4174 17.3326C21.1244 17.0396 20.7269 16.875 20.3125 16.875C19.8981 16.875 19.5007 17.0396 19.2077 17.3326C18.9147 17.6257 18.75 18.0231 18.75 18.4375C18.75 18.8519 18.9147 19.2493 19.2077 19.5424C19.5007 19.8354 19.8981 20 20.3125 20ZM6.0913 4.54125C6.29654 4.29371 6.55384 4.09447 6.84486 3.95771C7.13589 3.82095 7.45349 3.75003 7.77505 3.75H22.225C22.8763 3.75 23.4938 4.04 23.91 4.54125L28.385 9.94125C29.23 10.9588 28.5063 12.5 27.1825 12.5H26.25V23.4375C26.25 24.2663 25.9208 25.0612 25.3348 25.6472C24.7487 26.2333 23.9538 26.5625 23.125 26.5625H6.87505C6.04624 26.5625 5.25139 26.2333 4.66534 25.6472C4.07929 25.0612 3.75005 24.2663 3.75005 23.4375V12.5H2.81755C1.49505 12.5 0.771295 10.9588 1.61505 9.94L6.0913 4.54125ZM7.77505 5.625C7.72924 5.62502 7.684 5.6351 7.64253 5.65454C7.60105 5.67399 7.56436 5.70231 7.53505 5.7375L3.48255 10.625H26.5175L22.4663 5.7375C22.4368 5.70214 22.4 5.67373 22.3582 5.65428C22.3165 5.63483 22.2711 5.62483 22.225 5.625H7.77505ZM5.62505 12.5V23.4375C5.62505 23.769 5.75674 24.087 5.99116 24.3214C6.22558 24.5558 6.54353 24.6875 6.87505 24.6875H23.125C23.4566 24.6875 23.7745 24.5558 24.0089 24.3214C24.2434 24.087 24.375 23.769 24.375 23.4375V12.5H5.62505Z" fill="white"/>
</svg>
