<svg width="24" height="24" viewBox="0 0 24 24" fill="none" xmlns="http://www.w3.org/2000/svg">
<path d="M22 7.5V19.5C22 19.9125 21.7 20.25 21.3333 20.25H13.3333C13.3333 18.1781 11.8417 16.5 10 16.5H7.33333C5.49167 16.5 4 18.1781 4 20.25H2.66667C2.3 20.25 2 19.9125 2 19.5V7.5H22ZM2.66667 1.5C1.19583 1.5 0 2.84531 0 4.5V19.5C0 21.1547 1.19583 22.5 2.66667 22.5H21.3333C22.8042 22.5 24 21.1547 24 19.5V4.5C24 2.84531 22.8042 1.5 21.3333 1.5H2.66667ZM11.3333 12C11.3333 11.2044 11.0524 10.4413 10.5523 9.87868C10.0522 9.31607 9.37391 9 8.66667 9C7.95942 9 7.28115 9.31607 6.78105 9.87868C6.28095 10.4413 6 11.2044 6 12C6 12.7956 6.28095 13.5587 6.78105 14.1213C7.28115 14.6839 7.95942 15 8.66667 15C9.37391 15 10.0522 14.6839 10.5523 14.1213C11.0524 13.5587 11.3333 12.7956 11.3333 12ZM15.6667 9.75C15.1125 9.75 14.6667 10.2516 14.6667 10.875C14.6667 11.4984 15.1125 12 15.6667 12H19C19.5542 12 20 11.4984 20 10.875C20 10.2516 19.5542 9.75 19 9.75H15.6667ZM15.6667 14.25C15.1125 14.25 14.6667 14.7516 14.6667 15.375C14.6667 15.9984 15.1125 16.5 15.6667 16.5H19C19.5542 16.5 20 15.9984 20 15.375C20 14.7516 19.5542 14.25 19 14.25H15.6667Z" fill="#9F7EE7"/>
</svg>
