<svg width="35" height="35" viewBox="0 0 35 35" fill="none" xmlns="http://www.w3.org/2000/svg">
<circle cx="17.5" cy="17.5" r="17.5" fill="#F9EBFF"/>
<g clip-path="url(#clip0_5218_1284)">
<path d="M16.7373 8.05344C16.8203 8.01786 16.9097 7.99951 17 7.99951C17.0903 7.99951 17.1797 8.01786 17.2627 8.05344L26.3333 11.9414L17 15.9414L7.66667 11.9414L16.7373 8.05344ZM7 13.1068V23.3334C7 23.6001 7.16 23.8401 7.404 23.9468L16.3333 27.7734V17.1068L7 13.1068ZM17.6667 17.1068L27 13.1068V23.3334C27.0001 23.464 26.9619 23.5917 26.8901 23.7008C26.8183 23.8098 26.716 23.8953 26.596 23.9468L17.6667 27.7734V17.1068Z" fill="#9F7EE7"/>
</g>
<defs>
<clipPath id="clip0_5218_1284">
<rect width="20" height="20" fill="white" transform="translate(7 8)"/>
</clipPath>
</defs>
</svg>
