<svg width="35" height="35" viewBox="0 0 35 35" fill="none" xmlns="http://www.w3.org/2000/svg">
<circle cx="17.5" cy="17.5" r="17.5" fill="#F9EBFF"/>
<path d="M20.5833 9.94183C19.8842 9.68345 19.1158 9.68345 18.4167 9.94183L14.8275 11.2685C14.5481 11.3718 14.307 11.5583 14.1367 11.8028C13.9664 12.0473 13.8751 12.3381 13.875 12.636V14.9635C14.5466 14.8561 15.2345 14.9235 15.8725 15.1593L19.4608 16.486C19.9003 16.6483 20.2794 16.9415 20.5471 17.3259C20.8149 17.7103 20.9584 18.1675 20.9583 18.636V23.361C20.9583 23.6293 20.9117 23.8893 20.825 24.1327L24.1725 22.896C24.4521 22.7926 24.6933 22.606 24.8636 22.3614C25.0339 22.1167 25.1251 21.8258 25.125 21.5277V12.636C25.1249 12.3381 25.0336 12.0473 24.8633 11.8028C24.693 11.5583 24.4519 11.3718 24.1725 11.2685L20.5833 9.94183ZM16.8083 14.0068C16.7307 13.98 16.6592 13.9382 16.5978 13.8837C16.5363 13.8293 16.4863 13.7632 16.4503 13.6894C16.4144 13.6156 16.3934 13.5354 16.3885 13.4535C16.3836 13.3715 16.3949 13.2894 16.4217 13.2118C16.4485 13.1342 16.4903 13.0627 16.5448 13.0013C16.5992 12.9398 16.6653 12.8898 16.7391 12.8538C16.8129 12.8179 16.8931 12.7969 16.975 12.792C17.057 12.7871 17.1391 12.7984 17.2167 12.8252L19.4317 13.5918C19.4757 13.607 19.5235 13.607 19.5675 13.5918L21.7758 12.8252C21.9325 12.7708 22.1044 12.7809 22.2537 12.8533C22.4029 12.9256 22.5173 13.0543 22.5717 13.211C22.626 13.3677 22.6159 13.5396 22.5436 13.6888C22.4712 13.8381 22.3425 13.9525 22.1858 14.0068L19.9775 14.7727C19.6684 14.8797 19.3324 14.8797 19.0233 14.7727L16.8075 14.0068H16.8083ZM13.4167 15.9418C14.1158 15.6835 14.8842 15.6835 15.5833 15.9418L19.1725 17.2685C19.4519 17.3718 19.693 17.5583 19.8633 17.8028C20.0336 18.0473 20.1249 18.3381 20.125 18.636V23.361C20.1251 23.6591 20.0339 23.9501 19.8636 24.1947C19.6933 24.4394 19.4521 24.6259 19.1725 24.7293L15.5833 26.0552C14.8842 26.3135 14.1158 26.3135 13.4167 26.0552L9.8275 24.7285C9.54792 24.6251 9.30673 24.4385 9.13643 24.1939C8.96613 23.9492 8.87489 23.6583 8.875 23.3602V18.6352C8.87506 18.3372 8.96638 18.0464 9.13667 17.802C9.30696 17.5575 9.54805 17.371 9.8275 17.2677L13.4167 15.9418ZM11.4208 19.4285C11.394 19.5061 11.3827 19.5882 11.3876 19.6702C11.3926 19.7521 11.4136 19.8323 11.4495 19.9061C11.4854 19.9799 11.5355 20.046 11.5969 20.1004C11.6583 20.1549 11.7299 20.1967 11.8075 20.2235L13.8742 20.9377V23.1877C13.8742 23.3534 13.94 23.5124 14.0572 23.6296C14.1744 23.7468 14.3334 23.8127 14.4992 23.8127C14.6649 23.8127 14.8239 23.7468 14.9411 23.6296C15.0583 23.5124 15.1242 23.3534 15.1242 23.1877V20.9377L17.1858 20.2235C17.3391 20.1667 17.464 20.0521 17.5338 19.9043C17.6036 19.7565 17.6127 19.5873 17.5592 19.4328C17.5057 19.2784 17.3938 19.1511 17.2475 19.0781C17.1012 19.0052 16.9322 18.9925 16.7767 19.0427L14.5 19.831L12.2167 19.041C12.139 19.014 12.0568 19.0027 11.9748 19.0075C11.8928 19.0124 11.8125 19.0334 11.7386 19.0693C11.6646 19.1052 11.5985 19.1553 11.544 19.2168C11.4895 19.2783 11.4476 19.3508 11.4208 19.4285Z" fill="#9F7EE7"/>
</svg>
