<svg width="45" height="47" viewBox="0 0 45 47" fill="none" xmlns="http://www.w3.org/2000/svg">
<path fill-rule="evenodd" clip-rule="evenodd" d="M20.8532 3.41971L24.6371 3.45122C27.93 3.47863 30.5386 3.50035 32.5769 3.8042C34.6741 4.11792 36.3692 4.75456 37.6994 6.16818C37.9346 6.43672 38.0608 6.79037 38.0517 7.15463C38.0425 7.51888 37.8986 7.86529 37.6502 8.12088C37.4019 8.37647 37.0685 8.52128 36.7204 8.52481C36.3722 8.52834 36.0364 8.39031 35.7838 8.1398C35.0307 7.34225 33.9956 6.85737 32.1953 6.58925C30.3575 6.31519 27.9299 6.29123 24.5133 6.26278L20.9301 6.23295C17.5135 6.20451 15.0877 6.18806 13.2419 6.43146C11.4393 6.66958 10.3962 7.13716 9.63172 7.92395C8.86727 8.71074 8.40315 9.79441 8.14558 11.6786C7.88229 13.604 7.85757 16.1426 7.8278 19.7181L7.76537 27.2178C7.7356 30.7933 7.71803 33.3339 7.94923 35.2634C8.17541 37.1497 8.62142 38.241 9.37267 39.0404C10.1239 39.8398 11.1591 40.3247 12.9593 40.5928C14.7989 40.8669 17.2247 40.8908 20.6413 40.9193L24.2245 40.9491C27.6411 40.9775 30.0688 40.994 31.9127 40.7506C33.7154 40.5125 34.7585 40.0449 35.5229 39.2581C36.7808 37.9635 37.1757 35.9399 37.2797 31.1931C37.288 30.8201 37.4375 30.4659 37.6954 30.2082C37.9533 29.9504 38.2983 29.8104 38.6546 29.8188C39.0109 29.8273 39.3494 29.9835 39.5954 30.2531C39.8415 30.5228 39.9751 30.8838 39.9667 31.2567C39.8661 35.8066 39.5578 39.0498 37.4073 41.2632C36.0537 42.6545 34.3483 43.2628 32.246 43.5416C30.2012 43.8114 27.5944 43.7897 24.3015 43.7623L20.5176 43.7308C17.2246 43.7034 14.616 43.6817 12.5778 43.3778C10.4805 43.0641 8.78545 42.4275 7.45521 41.0139C6.12678 39.5984 5.54678 37.8141 5.282 35.6143C5.02568 33.4746 5.0484 30.7466 5.07709 27.3005L5.14127 19.5907C5.16996 16.1446 5.19269 13.4147 5.48458 11.2814C5.78595 9.08635 6.39558 7.31199 7.74739 5.91882C9.10097 4.52754 10.8064 3.91922 12.9086 3.64046C14.9534 3.3706 17.5602 3.3923 20.8532 3.41971ZM33.6085 14.3938C34.0605 13.9069 34.6008 13.5193 35.1977 13.2539C35.7946 12.9885 36.4361 12.8505 37.0845 12.8482C37.7329 12.8458 38.3752 12.9791 38.9735 13.2402C39.5718 13.5012 40.1141 13.8848 40.5685 14.3685C41.023 14.8521 41.3805 15.4259 41.62 16.0563C41.8594 16.6867 41.976 17.3609 41.963 18.0393C41.9499 18.7178 41.8074 19.3867 41.5439 20.0069C41.2804 20.6271 40.9011 21.186 40.4283 21.6508L31.8368 30.499C31.4792 30.8867 31.0992 31.2511 30.6989 31.5902C30.284 31.9242 29.8337 32.2092 29.3588 32.4415C28.9558 32.6388 28.5318 32.7815 27.9101 32.992L24.1655 34.264C23.7601 34.4022 23.3259 34.4194 22.9118 34.3137C22.4976 34.208 22.12 33.9835 21.8211 33.6655C21.5223 33.3475 21.3141 32.9486 21.22 32.5135C21.1259 32.0784 21.1496 31.6244 21.2884 31.2024L22.5403 27.3877L22.5661 27.3073C22.7793 26.6584 22.9227 26.219 23.1179 25.8006C23.3476 25.3076 23.6278 24.8421 23.9537 24.4125C24.2309 24.0473 24.5471 23.7218 25.0152 23.2401L25.0712 23.1824L33.6085 14.3938ZM38.5726 16.4227C38.3721 16.2092 38.1333 16.0392 37.8699 15.9224C37.6065 15.8055 37.3236 15.7442 37.0374 15.7418C36.7513 15.7394 36.4674 15.796 36.2021 15.9085C35.9368 16.0209 35.6952 16.1869 35.4911 16.397L35.1622 16.7355C35.1796 16.7976 35.1987 16.8671 35.2214 16.9367C35.3856 17.4443 35.7007 18.122 36.301 18.7607C36.8322 19.3296 37.4907 19.7507 38.2169 19.9861L38.5458 19.6476C38.7499 19.4375 38.9126 19.1875 39.0244 18.9117C39.1363 18.636 39.1951 18.3399 39.1976 18.0404C39.2001 17.741 39.1462 17.444 39.0389 17.1664C38.9317 16.8888 38.7733 16.6361 38.5726 16.4227ZM36.1458 22.1177C35.4949 21.7523 34.9008 21.2859 34.3835 20.7342C33.865 20.1838 33.4293 19.5543 33.0911 18.8671L26.9538 25.1838C26.4098 25.7436 26.2182 25.9445 26.057 26.1569C25.8523 26.4271 25.676 26.72 25.5319 27.0282C25.4188 27.2729 25.3288 27.5403 25.0806 28.2958L24.3452 30.5397L24.8479 31.0746L27.004 30.3425C27.7299 30.0954 27.9869 30.0056 28.2226 29.8914C28.5194 29.7438 28.8022 29.5662 29.0638 29.3565C29.2694 29.1913 29.4645 28.9942 30.0085 28.4343L36.1458 22.1177ZM14.114 17.8954C14.1171 17.5224 14.2617 17.1659 14.5159 16.9043C14.7701 16.6427 15.1131 16.4974 15.4694 16.5003L27.1149 16.5973C27.4712 16.6003 27.8118 16.7513 28.0616 17.0171C28.3114 17.2829 28.45 17.6417 28.4469 18.0147C28.4438 18.3876 28.2992 18.7441 28.045 19.0057C27.7908 19.2674 27.4478 19.4127 27.0915 19.4097L15.446 19.3128C15.0897 19.3098 14.7491 19.1588 14.4993 18.893C14.2495 18.6272 14.1109 18.2683 14.114 17.8954ZM14.0516 25.3951C14.0547 25.0222 14.1992 24.6657 14.4534 24.404C14.7076 24.1424 15.0506 23.9971 15.407 24.0001L19.886 24.0374C20.2424 24.0403 20.5829 24.1913 20.8327 24.4572C21.0825 24.723 21.2211 25.0818 21.218 25.4548C21.2149 25.8277 21.0704 26.1842 20.8162 26.4458C20.562 26.7074 20.219 26.8527 19.8626 26.8498L15.3836 26.8125C15.0272 26.8095 14.6867 26.6585 14.4369 26.3927C14.1871 26.1269 14.0485 25.7681 14.0516 25.3951ZM13.9892 32.8948C13.9923 32.5219 14.1368 32.1654 14.391 31.9038C14.6452 31.6422 14.9882 31.4969 15.3446 31.4998L18.032 31.5222C18.3883 31.5252 18.7289 31.6762 18.9787 31.942C19.2285 32.2078 19.3671 32.5666 19.364 32.9396C19.3609 33.3125 19.2163 33.669 18.9621 33.9306C18.7079 34.1923 18.3649 34.3376 18.0086 34.3346L15.3212 34.3122C14.9648 34.3093 14.6242 34.1583 14.3744 33.8925C14.1246 33.6266 13.9861 33.2678 13.9892 32.8948Z" fill="white"/>
</svg>
